<?xml version="1.0" encoding="UTF-8"?>
<svg width="20px" height="14px" viewBox="0 0 20 14" version="1.1" xmlns="http://www.w3.org/2000/svg" xmlns:xlink="http://www.w3.org/1999/xlink">
    <!-- Generator: sketchtool 52.2 (67145) - http://www.bohemiancoding.com/sketch -->
    <title>72AD689A-9BBC-4B6E-85AB-CFD8F9C2DA38</title>
    <desc>Created with sketchtool.</desc>
    <g id="New-garden" stroke="none" stroke-width="1" fill="none" fill-rule="evenodd">
        <g id="home" transform="translate(-716.000000, -1130.000000)" fill="#FFFFFF">
            <g id="Group-3" transform="translate(-50.000000, 727.000000)">
                <g id="Group-16" transform="translate(457.000000, 128.000000)">
                    <g id="Group-8" transform="translate(0.000000, 260.000000)">
                        <g id="right-arrow-(1)" transform="translate(309.000000, 15.000000)">
                            <path d="M13.253125,0.208125 C12.985,-0.069375 12.53875,-0.069375 12.26125,0.208125 C11.993125,0.47625 11.993125,0.9225 12.26125,1.19 L17.290625,6.219375 L0.694375,6.219375 C0.3075,6.22 0,6.5275 0,6.914375 C0,7.30125 0.3075,7.61875 0.694375,7.61875 L17.290625,7.61875 L12.26125,12.63875 C11.993125,12.91625 11.993125,13.363125 12.26125,13.630625 C12.53875,13.908125 12.985625,13.908125 13.253125,13.630625 L19.473125,7.410625 C19.750625,7.1425 19.750625,6.69625 19.473125,6.42875 L13.253125,0.208125 Z" id="arr"></path>
                        </g>
                    </g>
                </g>
            </g>
        </g>
    </g>
</svg>