<?xml version="1.0" encoding="UTF-8"?>
<svg width="20px" height="23px" viewBox="0 0 20 23" version="1.1" xmlns="http://www.w3.org/2000/svg" xmlns:xlink="http://www.w3.org/1999/xlink">
    <!-- Generator: sketchtool 52.2 (67145) - http://www.bohemiancoding.com/sketch -->
    <title>6CC0237D-C6A3-4BD8-B6EE-7D6F3EE5E7A8</title>
    <desc>Created with sketchtool.</desc>
    <g id="New-garden" stroke="none" stroke-width="1" fill="none" fill-rule="evenodd">
        <g id="home" transform="translate(-1471.000000, -19.000000)" fill="#FFFFFF" fill-rule="nonzero">
            <g id="head">
                <g id="Group-10" transform="translate(1471.000000, 15.000000)">
                    <g id="shopping-cart" transform="translate(0.000000, 5.000000)">
                        <path d="M5.6984106,14.1443267 L17.5350552,14.1443267 C18.8772185,14.1443267 19.9721413,13.049404 19.9721413,11.7072406 L19.9721413,6.72710817 C19.9721413,6.72269316 19.9721413,6.71386313 19.9721413,6.70944812 C19.9721413,6.69620309 19.9721413,6.68737307 19.9721413,6.67412804 C19.9721413,6.66529801 19.9721413,6.65646799 19.9677263,6.64763797 C19.9677263,6.63880795 19.9633113,6.62556291 19.9633113,6.61673289 C19.9633113,6.60790287 19.9588962,6.59907285 19.9588962,6.59024283 C19.9544812,6.5814128 19.9544812,6.57258278 19.9500662,6.55933775 C19.9456512,6.55050773 19.9456512,6.5416777 19.9412362,6.53284768 C19.9368212,6.52401766 19.9368212,6.51518764 19.9324062,6.50635762 C19.9279912,6.49752759 19.9235762,6.48869757 19.9191611,6.47545254 C19.9147461,6.46662252 19.9103311,6.45779249 19.9059161,6.45337748 C19.9015011,6.44454746 19.8970861,6.43571744 19.8926711,6.42688742 C19.8882561,6.4180574 19.8838411,6.41364238 19.879426,6.40481236 C19.875011,6.39598234 19.866181,6.38715232 19.861766,6.3783223 C19.857351,6.36949227 19.852936,6.36507726 19.844106,6.35624724 C19.8396909,6.34741722 19.8308609,6.34300221 19.8264459,6.33417219 C19.8220309,6.32534216 19.8132009,6.32092715 19.8087859,6.31209713 C19.8043709,6.30326711 19.7955408,6.2988521 19.7911258,6.29443709 C19.7822958,6.28560706 19.7778808,6.28119205 19.7690508,6.27236203 C19.7602208,6.26794702 19.7558057,6.259117 19.7469757,6.25470199 C19.7381457,6.25028698 19.7293157,6.24145695 19.7204857,6.23704194 C19.7116556,6.23262693 19.7072406,6.22821192 19.6984106,6.22379691 C19.6895806,6.2193819 19.6807506,6.21496689 19.6719205,6.20613687 C19.6630905,6.20172185 19.6542605,6.19730684 19.6454305,6.19289183 C19.6366004,6.18847682 19.6277704,6.18406181 19.6189404,6.1796468 C19.6101104,6.17523179 19.6012804,6.17081678 19.5924503,6.16640177 C19.5836203,6.16198675 19.5747903,6.16198675 19.5659603,6.15757174 C19.5571302,6.15315673 19.5438852,6.14874172 19.5350552,6.14874172 C19.5262252,6.14874172 19.5173951,6.14432671 19.5129801,6.14432671 C19.4997351,6.1399117 19.4909051,6.1399117 19.47766,6.1399117 C19.473245,6.1399117 19.46883,6.13549669 19.46,6.13549669 L4.45779249,4.06485651 L4.45779249,1.97214128 C4.45779249,1.95006623 4.45779249,1.92799117 4.45337748,1.91033113 C4.45337748,1.90591611 4.45337748,1.9015011 4.44896247,1.89267108 C4.44896247,1.87942605 4.44454746,1.86618102 4.44454746,1.85293598 C4.44013245,1.83969095 4.44013245,1.83086093 4.43571744,1.81761589 C4.43571744,1.80878587 4.43130243,1.80437086 4.43130243,1.79554084 C4.42688742,1.78229581 4.42247241,1.76905077 4.4180574,1.75580574 C4.4180574,1.75139073 4.41364238,1.74256071 4.41364238,1.7381457 C4.40922737,1.72490066 4.40481236,1.71607064 4.39598234,1.70282561 C4.39156733,1.6984106 4.39156733,1.68958057 4.38715232,1.68516556 C4.38273731,1.67633554 4.3783223,1.66750552 4.36949227,1.6586755 C4.36507726,1.64984547 4.36066225,1.64543046 4.35624724,1.63660044 C4.35183223,1.62777042 4.34741722,1.62335541 4.34300221,1.61452539 C4.3385872,1.60569536 4.32975717,1.59686534 4.32534216,1.58803532 C4.32092715,1.58362031 4.31651214,1.5792053 4.31209713,1.57479029 C4.30326711,1.56596026 4.29443709,1.55713024 4.28560706,1.54830022 C4.28119205,1.54388521 4.27677704,1.5394702 4.27236203,1.53505519 C4.26353201,1.52622517 4.25470199,1.51739514 4.24145695,1.50856512 C4.23704194,1.50415011 4.22821192,1.4997351 4.22379691,1.49532009 C4.21496689,1.48649007 4.20613687,1.48207506 4.19730684,1.47324503 C4.18406181,1.46441501 4.17081678,1.45558499 4.16198675,1.45116998 C4.15757174,1.44675497 4.15315673,1.44675497 4.14874172,1.44233996 C4.13108168,1.43350993 4.10900662,1.42467991 4.09134658,1.41584989 L0.837483444,0.047196468 C0.532847682,-0.0808388521 0.18406181,0.0604415011 0.0560264901,0.365077263 C-0.07200883,0.669713024 0.0692715232,1.0184989 0.373907285,1.14653422 L3.2613245,2.36507726 L3.2613245,5.06706402 L3.2613245,5.49532009 L3.2613245,8.7800883 L3.2613245,11.7160706 L3.2613245,15.4246799 C3.2613245,16.660883 4.18847682,17.6851656 5.38494481,17.8396909 C5.16860927,18.2017219 5.04057395,18.6255629 5.04057395,19.075894 C5.04057395,20.4048124 6.12225166,21.4820751 7.44675497,21.4820751 C8.77125828,21.4820751 9.85293598,20.4003974 9.85293598,19.075894 C9.85293598,18.6343929 9.73373068,18.2149669 9.52181015,17.861766 L14.8816336,17.861766 C14.669713,18.2193819 14.5505077,18.6343929 14.5505077,19.075894 C14.5505077,20.4048124 15.6321854,21.4820751 16.9566887,21.4820751 C18.2811921,21.4820751 19.3628698,20.4003974 19.3628698,19.075894 C19.3628698,17.7513907 18.2811921,16.669713 16.9566887,16.669713 L5.6984106,16.669713 C5.00966887,16.669713 4.45337748,16.1090066 4.45337748,15.4246799 L4.45337748,13.8087859 C4.81540839,14.0207064 5.24366446,14.1443267 5.6984106,14.1443267 Z M8.66529801,19.071479 C8.66529801,19.7425607 8.11783664,20.2856071 7.45116998,20.2856071 C6.78450331,20.2856071 6.23704194,19.7381457 6.23704194,19.071479 C6.23704194,18.4048124 6.78450331,17.857351 7.45116998,17.857351 C8.11783664,17.857351 8.66529801,18.4003974 8.66529801,19.071479 Z M18.1752318,19.071479 C18.1752318,19.7425607 17.6277704,20.2856071 16.9611038,20.2856071 C16.2944371,20.2856071 15.7469757,19.7381457 15.7469757,19.071479 C15.7469757,18.4048124 16.2944371,17.857351 16.9611038,17.857351 C17.6277704,17.857351 18.1752318,18.4003974 18.1752318,19.071479 Z M17.5350552,12.9522737 L5.6984106,12.9522737 C5.00966887,12.9522737 4.45337748,12.3915673 4.45337748,11.7072406 L4.45337748,8.77125828 L4.45337748,5.48649007 L4.45337748,5.26573951 L18.7800883,7.23924945 L18.7800883,11.7028256 C18.7800883,12.3959823 18.2193819,12.9522737 17.5350552,12.9522737 Z" id="Shape"></path>
                    </g>
                </g>
            </g>
        </g>
    </g>
</svg>