<?xml version="1.0" encoding="UTF-8"?>
<svg width="30px" height="20px" viewBox="0 0 30 20" version="1.1" xmlns="http://www.w3.org/2000/svg" xmlns:xlink="http://www.w3.org/1999/xlink">
    <!-- Generator: sketchtool 52.2 (67145) - http://www.bohemiancoding.com/sketch -->
    <title>95E36C66-AB07-45EB-BCCF-0313122006E0</title>
    <desc>Created with sketchtool.</desc>
    <g id="New-garden" stroke="none" stroke-width="1" fill="none" fill-rule="evenodd">
        <g id="home" transform="translate(-427.000000, -1128.000000)" fill="#FFFFFF" fill-rule="nonzero">
            <g id="Group-3" transform="translate(-50.000000, 727.000000)">
                <g id="Group-16" transform="translate(457.000000, 128.000000)">
                    <g id="Group-8" transform="translate(0.000000, 260.000000)">
                        <g id="bicycle" transform="translate(20.000000, 13.000000)">
                            <path d="M23.7502148,6.87503906 C23.1798633,6.87503906 22.6269141,6.95191406 22.1005078,7.09611328 L20.4909961,2.90994141 L21.0733008,2.31123047 C21.3113086,2.06583984 21.3086133,1.67496094 21.0669141,1.43279297 L19.8172266,0.183574219 C19.7000391,0.0663867187 19.5407227,0 19.3750195,0 L16.2504492,0 C15.9052734,0 15.6251367,0.280136719 15.6251367,0.6253125 C15.6251367,0.970488281 15.9052148,1.25015625 16.2503906,1.25015625 L19.1158594,1.25015625 L19.7475586,1.88138672 L19.3154297,2.32447266 C19.1414648,2.50347656 19.0975195,2.76023438 19.1790234,2.97996094 C19.1790234,2.98130859 19.1799609,2.98318359 19.1799609,2.985 L19.7548828,4.47914063 L11.2498242,5.54208984 L11.2498242,4.37525391 L13.1248242,4.37525391 C13.47,4.37525391 13.7501367,4.09511719 13.7501367,3.75 C13.7501367,3.40488281 13.47,3.12515625 13.1248242,3.12515625 L9.37488281,3.12515625 C9.02970703,3.12515625 8.75003906,3.40482422 8.75003906,3.75 C8.75003906,4.09517578 9.02970703,4.37525391 9.37488281,4.37525391 L10.0001367,4.37525391 L10.0001367,6.08085938 L9.12720703,7.57769531 C8.26523438,7.12910156 7.28701172,6.87503906 6.25019531,6.87503906 C2.80417969,6.87503906 0,9.67880859 0,13.1242383 C0,16.5721289 2.80417969,19.3753711 6.25019531,19.3753711 C9.26865234,19.3753711 11.7935742,17.2239844 12.3744727,14.3748633 L13.2322852,14.3748633 C13.4904492,15.1027148 14.1848438,15.6254883 15.0001172,15.6254883 C16.0341797,15.6254883 16.8745898,14.7850195 16.8745898,13.7504883 C16.8745898,13.3183594 16.7281641,12.9192773 16.480957,12.6025195 L20.4844336,6.37517578 L20.9339648,7.54611328 C18.8987695,8.57748047 17.4999023,10.6908984 17.4999023,13.1242383 C17.4999023,16.5721289 20.304082,19.3753711 23.7500977,19.3753711 C27.1961133,19.3753711 29.9993555,16.5721289 29.9993555,13.1242383 C29.9994727,9.67875 27.1961719,6.87503906 23.7502148,6.87503906 Z M6.25025391,18.1248047 C3.49318359,18.1248047 1.25021484,15.8817773 1.25021484,13.1241797 C1.25021484,10.3681055 3.49324219,8.12513672 6.25025391,8.12513672 C7.05773437,8.12513672 7.82080078,8.31738281 8.49644531,8.65886719 L5.71007812,13.4354883 C5.53658203,13.7339648 5.63683594,14.1157031 5.9353125,14.2906055 C6.03462891,14.3473828 6.14267578,14.3748633 6.24978516,14.3748633 C6.24978516,14.3748633 6.25160156,14.3748633 6.25300781,14.3748633 L11.0919141,14.3748633 C10.5352734,16.5299414 8.57560547,18.1248047 6.25025391,18.1248047 Z M7.33833984,13.1241797 L9.53554688,9.35876953 C10.5856641,10.2761133 11.2498242,11.624707 11.2498242,13.1241797 L7.33833984,13.1241797 Z M13.2323438,13.1241797 L12.4999219,13.1241797 C12.4999219,11.1632813 11.5917773,9.41050781 10.1741016,8.26382813 L10.6249805,7.49021484 L13.5697266,12.5383594 C13.4245898,12.7105078 13.3092773,12.9082031 13.2323438,13.1241797 Z M15.0002344,14.3748047 C14.6550586,14.3748047 14.3749219,14.0937305 14.3749219,13.7504297 C14.3749219,13.404375 14.6550586,13.1241797 15.0002344,13.1241797 C15.3449414,13.1241797 15.6250781,13.4043164 15.6250781,13.7504297 C15.6250781,14.0937305 15.3449414,14.3748047 15.0002344,14.3748047 Z M15.4300781,11.9249414 C15.2913867,11.8929492 15.1480664,11.8755469 15.0002344,11.8755469 C14.8798242,11.8755469 14.7626367,11.8865625 14.6496094,11.9084766 L11.642168,6.75275391 L19.3758984,5.78595703 L15.4300781,11.9249414 Z M23.7502148,18.1248047 C20.9926758,18.1248047 18.7496484,15.8817773 18.7496484,13.1241797 C18.7496484,11.2227539 19.8189844,9.56519531 21.3863672,8.72015625 L23.1670313,13.3493555 C23.2631836,13.5965625 23.499375,13.7503711 23.7502148,13.7503711 C23.8243945,13.7503711 23.900332,13.7357227 23.9745117,13.7082422 C24.2967188,13.5837305 24.4569141,13.2230273 24.3342773,12.9008789 L22.5518555,8.27021484 C22.9363477,8.17546875 23.3382422,8.12507812 23.7502148,8.12507812 C26.5068164,8.12507812 28.7497852,10.3680469 28.7497852,13.1241211 C28.7497852,15.8817773 26.5068164,18.1248047 23.7502148,18.1248047 Z" id="Shape"></path>
                        </g>
                    </g>
                </g>
            </g>
        </g>
    </g>
</svg>