<?xml version="1.0" encoding="UTF-8"?>
<svg width="30px" height="22px" viewBox="0 0 30 22" version="1.1" xmlns="http://www.w3.org/2000/svg" xmlns:xlink="http://www.w3.org/1999/xlink">
    <!-- Generator: sketchtool 52.2 (67145) - http://www.bohemiancoding.com/sketch -->
    <title>1C12C64F-E447-4406-AA2C-F89E7B3D2F4A</title>
    <desc>Created with sketchtool.</desc>
    <g id="New-garden" stroke="none" stroke-width="1" fill="none" fill-rule="evenodd">
        <g id="home" transform="translate(-429.000000, -1294.000000)" fill="#FFFFFF" fill-rule="nonzero">
            <g id="Group-3" transform="translate(-50.000000, 727.000000)">
                <g id="Group-16" transform="translate(457.000000, 128.000000)">
                    <g id="bike-copy" transform="translate(0.000000, 427.000000)">
                        <g id="chair" transform="translate(22.000000, 12.000000)">
                            <path d="M11.4353435,9.83435115 L6.5478626,9.83435115 C5.97541985,9.83435115 5.50610687,9.40442748 5.45603053,8.83419847 L4.89145038,2.40068702 C4.77183206,1.03732824 3.64954198,0.00923664122 2.28091603,0.00923664122 L1.75900763,0.00923664122 C1.26709924,0.00923664122 0.794351145,0.217251908 0.462061069,0.58 C0.129770992,0.942748092 -0.0361832061,1.4319084 0.00671755725,1.92206107 L0.788549618,10.8312977 C0.880839695,11.8826718 1.36022901,12.8542748 2.13847328,13.5672519 C2.62740458,14.0151908 3.20793893,14.3364885 3.83358779,14.5135878 L1.96229008,20.6246565 C1.86969466,20.9270229 2.03977099,21.2470992 2.34206107,21.3396947 C2.39793893,21.3567939 2.45442748,21.3649618 2.50992366,21.3649618 C2.7548855,21.3649618 2.98167939,21.2064122 3.05709924,20.9599237 L3.7221374,18.7880916 L11.5748092,18.7880916 L12.2398473,20.9599237 C12.3152672,21.2064122 12.5419847,21.3649618 12.7870229,21.3649618 C12.8425954,21.3649618 12.899084,21.3567939 12.9548855,21.3396947 C13.2571756,21.2470992 13.4272519,20.9269466 13.3346565,20.6246565 L12.5461069,18.0493893 C12.5453435,18.0468702 12.5445802,18.0443511 12.5438168,18.0418321 L11.5122137,14.6727481 L12.559771,14.6727481 C13.5059542,14.6727481 14.2755725,13.9030534 14.2755725,12.9568702 L14.2755725,12.6746565 C14.2755725,11.1084733 13.0014504,9.83435115 11.4353435,9.83435115 Z M4.07274809,17.6429008 L4.98221374,14.6726718 L10.3146565,14.6726718 L11.2241221,17.6429008 L4.07274809,17.6429008 Z M13.1305344,12.9567939 C13.1305344,13.2716031 12.8745038,13.5276336 12.559771,13.5276336 L10.7438931,13.5276336 C10.7416031,13.5276336 10.7393893,13.5276336 10.7370992,13.5276336 L4.9819084,13.5276336 C4.85946565,13.5276336 4.73900763,13.519771 4.62038168,13.5060305 C4.62030534,13.5060305 4.62015267,13.5060305 4.62,13.5060305 C3.18763359,13.340458 2.05832061,12.2033588 1.92916031,10.7310687 L1.14732824,1.8219084 C1.13206107,1.64824427 1.18854962,1.4819084 1.30625954,1.35343511 C1.42389313,1.22496183 1.58465649,1.15419847 1.7589313,1.15419847 L2.28083969,1.15419847 C3.05145038,1.15419847 3.68335878,1.73305344 3.75068702,2.50076336 L4.31526718,8.93427481 L4.31526718,8.93419847 C4.41755725,10.1000763 5.37732824,10.979313 6.54778626,10.979313 L11.4352672,10.979313 C12.37,10.979313 13.130458,11.739771 13.130458,12.6745038 L13.130458,12.9567939 L13.1305344,12.9567939 Z" id="Shape"></path>
                            <path d="M23.8891603,19.4764122 C23.6529008,18.5682443 22.8325954,17.9339695 21.8941985,17.9339695 L21.5398473,17.9339695 L21.5398473,7.51152672 L28.589771,7.51152672 C28.9958779,7.51152672 29.3759542,7.33099237 29.6325954,7.01625954 C29.8892366,6.70145038 29.9896183,6.29274809 29.9077863,5.8948855 C29.6615267,4.69763359 28.5957252,3.82870229 27.3735115,3.82870229 L15.4706107,3.82870229 C15.1543511,3.82870229 14.8980916,4.08503817 14.8980916,4.40122137 C14.8980916,4.71740458 15.1543511,4.97374046 15.4706107,4.97374046 L27.3735115,4.97374046 C28.0548855,4.97374046 28.6489313,5.45816794 28.7861832,6.12549618 C28.8029008,6.20671756 28.7676336,6.2651145 28.7451908,6.29274809 C28.7226718,6.32030534 28.6725954,6.36656489 28.589771,6.36656489 L10.4940458,6.36656489 C10.4112214,6.36656489 10.361145,6.32030534 10.338626,6.29274809 C10.3161832,6.26519084 10.280916,6.20671756 10.2976336,6.12557252 C10.4348855,5.45816794 11.0289313,4.97374046 11.7103053,4.97374046 L12.7854198,4.97374046 C13.1016794,4.97374046 13.3579389,4.71740458 13.3579389,4.40122137 C13.3579389,4.08503817 13.1016794,3.82870229 12.7854198,3.82870229 L11.7103053,3.82870229 C10.4880153,3.82870229 9.42221374,4.69763359 9.17603053,5.89496183 C9.09427481,6.29282443 9.19458015,6.70152672 9.45122137,7.01625954 C9.7078626,7.33099237 10.0879389,7.51152672 10.4940458,7.51152672 L17.5440458,7.51152672 L17.5440458,17.9340458 L17.1896947,17.9340458 C16.2512977,17.9340458 15.4309924,18.5683206 15.1947328,19.4764122 L15.0603053,19.9929771 C14.9742748,20.3238931 15.0448092,20.6687023 15.2538931,20.9392366 C15.4630534,21.2096947 15.779084,21.3648855 16.120916,21.3648855 L22.9629008,21.3648855 C23.3048092,21.3648855 23.6207634,21.209771 23.8299237,20.9392366 C24.0390076,20.6687786 24.109542,20.3238931 24.0235115,19.9929771 L23.8891603,19.4764122 Z M18.689084,7.51152672 L20.3948855,7.51152672 L20.3948855,17.9340458 L18.689084,17.9340458 L18.689084,7.51152672 Z M16.1844275,20.219771 L16.3029008,19.7646565 C16.4078626,19.3609924 16.7725191,19.079084 17.1896183,19.079084 L21.8941221,19.079084 C22.3112214,19.079084 22.6758779,19.3609924 22.7808397,19.7646565 L22.899313,20.219771 L16.1844275,20.219771 Z" id="Shape"></path>
                        </g>
                    </g>
                </g>
            </g>
        </g>
    </g>
</svg>