<?xml version="1.0" encoding="UTF-8"?>
<svg width="25px" height="17px" viewBox="0 0 25 17" version="1.1" xmlns="http://www.w3.org/2000/svg" xmlns:xlink="http://www.w3.org/1999/xlink">
    <!-- Generator: sketchtool 52.2 (67145) - http://www.bohemiancoding.com/sketch -->
    <title>CCE796A9-88D8-4B36-AFDC-986939394FA8</title>
    <desc>Created with sketchtool.</desc>
    <g id="New-garden" stroke="none" stroke-width="1" fill="none" fill-rule="evenodd">
        <g id="home" transform="translate(-1133.000000, -974.000000)" fill="#48AA48" fill-rule="nonzero">
            <g id="Group-3" transform="translate(-50.000000, 727.000000)">
                <g id="Group-16" transform="translate(457.000000, 128.000000)">
                    <g id="Group-5" transform="translate(476.000000, 5.000000)">
                        <g id="Group-11" transform="translate(250.000000, 114.000000)">
                            <g id="delivery-truck">
                                <path d="M20.4014228,12.4466463 C19.7916667,12.4466463 19.2123984,12.6854675 18.7754065,13.117378 C18.3384146,13.5543699 18.0945122,14.1234756 18.0945122,14.7332317 C18.0945122,15.3429878 18.3333333,15.9120935 18.7754065,16.3490854 C19.2174797,16.7809959 19.7916667,17.0198171 20.4014228,17.0198171 C21.6514228,17.0198171 22.6676829,15.9933943 22.6676829,14.7332317 C22.6676829,13.4730691 21.6514228,12.4466463 20.4014228,12.4466463 Z M20.4014228,16.0035569 C19.7002033,16.0035569 19.1107724,15.4242886 19.1107724,14.7332317 C19.1107724,14.0421748 19.7002033,13.4629065 20.4014228,13.4629065 C21.0924797,13.4629065 21.6514228,14.0320122 21.6514228,14.7332317 C21.6514228,15.4344512 21.0924797,16.0035569 20.4014228,16.0035569 Z M20.9908537,4.82977642 C20.8993902,4.74339431 20.777439,4.6976626 20.6504065,4.6976626 L18.0436992,4.6976626 C17.7642276,4.6976626 17.5355691,4.92632114 17.5355691,5.20579268 L17.5355691,9.37245935 C17.5355691,9.65193089 17.7642276,9.88058943 18.0436992,9.88058943 L22.179878,9.88058943 C22.4593496,9.88058943 22.6880081,9.65193089 22.6880081,9.37245935 L22.6880081,6.5828252 C22.6880081,6.44054878 22.6270325,6.30335366 22.5203252,6.20680894 L20.9908537,4.82977642 Z M21.671748,8.86432927 L18.5518293,8.86432927 L18.5518293,5.70884146 L20.4522358,5.70884146 L21.671748,6.80640244 L21.671748,8.86432927 Z M7.99288618,12.4466463 C7.38313008,12.4466463 6.80386179,12.6854675 6.36686992,13.117378 C5.92987805,13.5543699 5.68597561,14.1234756 5.68597561,14.7332317 C5.68597561,15.3429878 5.92479675,15.9120935 6.36686992,16.3490854 C6.80894309,16.7809959 7.38313008,17.0198171 7.99288618,17.0198171 C9.24288618,17.0198171 10.2591463,15.9933943 10.2591463,14.7332317 C10.2591463,13.4730691 9.24288618,12.4466463 7.99288618,12.4466463 Z M7.99288618,16.0035569 C7.29166667,16.0035569 6.70223577,15.4242886 6.70223577,14.7332317 C6.70223577,14.0421748 7.29166667,13.4629065 7.99288618,13.4629065 C8.68394309,13.4629065 9.24288618,14.0320122 9.24288618,14.7332317 C9.24288618,15.4344512 8.68394309,16.0035569 7.99288618,16.0035569 Z M4.60365854,13.0716463 L3.58231707,13.0716463 L3.58231707,11.7200203 C3.58231707,11.4405488 3.35365854,11.2118902 3.07418699,11.2118902 C2.79471545,11.2118902 2.56605691,11.4405488 2.56605691,11.7200203 L2.56605691,13.5797764 C2.56605691,13.859248 2.79471545,14.0879065 3.07418699,14.0879065 L4.60365854,14.0879065 C4.88313008,14.0879065 5.11178862,13.859248 5.11178862,13.5797764 C5.11178862,13.3003049 4.88313008,13.0716463 4.60365854,13.0716463 Z M7.17987805,10.3023374 C7.17987805,10.0228659 6.95121951,9.79420732 6.67174797,9.79420732 L0.508130081,9.79420732 C0.228658537,9.79420732 0,10.0228659 0,10.3023374 C0,10.5818089 0.228658537,10.8104675 0.508130081,10.8104675 L6.67174797,10.8104675 C6.95121951,10.8104675 7.17987805,10.5868902 7.17987805,10.3023374 Z M1.53963415,8.4679878 L7.70325203,8.50355691 C7.98272358,8.50355691 8.21138211,8.27997967 8.21646341,8.00050813 C8.22154472,7.71595528 7.99288618,7.48729675 7.71341463,7.48729675 L1.54979675,7.45172764 C1.54471545,7.45172764 1.54471545,7.45172764 1.54471545,7.45172764 C1.2652439,7.45172764 1.03658537,7.67530488 1.03658537,7.95477642 C1.03150407,8.23932927 1.2601626,8.4679878 1.53963415,8.4679878 Z M2.57621951,6.16107724 L8.7398374,6.16107724 C9.01930894,6.16107724 9.24796748,5.9324187 9.24796748,5.65294715 C9.24796748,5.37347561 9.01930894,5.14481707 8.7398374,5.14481707 L2.57621951,5.14481707 C2.29674797,5.14481707 2.06808943,5.37347561 2.06808943,5.65294715 C2.06808943,5.9324187 2.29674797,6.16107724 2.57621951,6.16107724 Z M24.7662602,5.47510163 L21.1280488,2.46189024 C21.0365854,2.38567073 20.9247967,2.34502033 20.8028455,2.34502033 L16.5243902,2.34502033 L16.5243902,0.515752033 C16.5243902,0.236280488 16.2957317,0.00762195122 16.0162602,0.00762195122 L3.07418699,0.00762195122 C2.79471545,0.00762195122 2.56605691,0.236280488 2.56605691,0.515752033 L2.56605691,4.23526423 C2.56605691,4.51473577 2.79471545,4.74339431 3.07418699,4.74339431 C3.35365854,4.74339431 3.58231707,4.51473577 3.58231707,4.23526423 L3.58231707,1.02388211 L15.5132114,1.02388211 L15.5132114,13.0716463 L11.3465447,13.0716463 C11.0670732,13.0716463 10.8384146,13.3003049 10.8384146,13.5797764 C10.8384146,13.859248 11.0670732,14.0879065 11.3465447,14.0879065 L17.550813,14.0879065 C17.8302846,14.0879065 18.0589431,13.859248 18.0589431,13.5797764 C18.0589431,13.3003049 17.8302846,13.0716463 17.550813,13.0716463 L16.5294715,13.0716463 L16.5294715,3.36128049 L20.625,3.36128049 L23.9380081,6.10518293 L23.902439,13.0614837 L23.3739837,13.0614837 C23.0945122,13.0614837 22.8658537,13.2901423 22.8658537,13.5696138 C22.8658537,13.8490854 23.0945122,14.0777439 23.3739837,14.0777439 L24.4054878,14.0777439 C24.6849593,14.0777439 24.9136179,13.8541667 24.9136179,13.5746951 L24.9542683,5.87144309 C24.949187,5.71900407 24.8831301,5.57164634 24.7662602,5.47510163 Z" id="deliv"></path>
                            </g>
                        </g>
                    </g>
                </g>
            </g>
        </g>
    </g>
</svg>