<?xml version="1.0" encoding="UTF-8"?>
<svg width="30px" height="30px" viewBox="0 0 30 30" version="1.1" xmlns="http://www.w3.org/2000/svg" xmlns:xlink="http://www.w3.org/1999/xlink">
    <!-- Generator: sketchtool 52.2 (67145) - http://www.bohemiancoding.com/sketch -->
    <title>7182BF8A-098A-4F8C-BB7D-47ACED0A6FF8</title>
    <desc>Created with sketchtool.</desc>
    <g id="New-garden" stroke="none" stroke-width="1" fill="none" fill-rule="evenodd" opacity="0.5">
        <g id="home" transform="translate(-1262.000000, -3944.000000)" fill="#FFFFFF">
            <g id="footer" transform="translate(0.000000, 3891.000000)">
                <g id="fb" transform="translate(1262.000000, 53.000000)">
                    <path d="M19.2313636,9.68727273 L17.8622727,9.68818182 C16.7886364,9.68818182 16.5804545,10.1981818 16.5804545,10.9463636 L16.5804545,12.5972727 L19.1413636,12.5972727 L18.8077273,15.1836364 L16.5804545,15.1836364 L16.5804545,21.8181818 L13.9104545,21.8181818 L13.9104545,15.1836364 L11.6777273,15.1836364 L11.6777273,12.5972727 L13.9104545,12.5972727 L13.9104545,10.6909091 C13.9104545,8.47727273 15.2622727,7.27272727 17.2359091,7.27272727 C18.1813636,7.27272727 18.9940909,7.34272727 19.2313636,7.37454545 L19.2313636,9.68727273 Z M15.4540909,0 C7.42136364,0 0.908636364,6.51181818 0.908636364,14.5454545 C0.908636364,22.5781818 7.42136364,29.0909091 15.4540909,29.0909091 C23.4877273,29.0909091 29.9995455,22.5781818 29.9995455,14.5454545 C29.9995455,6.51181818 23.4877273,0 15.4540909,0 L15.4540909,0 Z"></path>
                </g>
            </g>
        </g>
    </g>
</svg>