<?xml version="1.0" encoding="UTF-8"?>
<svg width="70px" height="85px" viewBox="0 0 70 85" version="1.1" xmlns="http://www.w3.org/2000/svg" xmlns:xlink="http://www.w3.org/1999/xlink">
    <!-- Generator: sketchtool 52.2 (67145) - http://www.bohemiancoding.com/sketch -->
    <title>8F6815A6-562D-4B8A-A8BE-E86B847797E6</title>
    <desc>Created with sketchtool.</desc>
    <g id="New-garden" stroke="none" stroke-width="1" fill="none" fill-rule="evenodd">
        <g id="home" transform="translate(-545.000000, -2992.000000)" fill="#48AA48">
            <g id="Group-9" transform="translate(0.000000, 2716.000000)">
                <g id="001-quality" transform="translate(545.000000, 276.000000)">
                    <path d="M55.7637915,5.5628436 C54.9697393,5.10436019 53.9532464,5.37672986 53.494763,6.17078199 C53.0362796,6.96649289 53.3086493,7.98132701 54.1027014,8.43981043 C54.8967536,8.89995261 55.9132464,8.62758294 56.3717299,7.83187204 C56.8302133,7.03798578 56.5578436,6.02298578 55.7637915,5.5628436 Z" id="Path"></path>
                    <path d="M35.0003318,0 C34.0833649,0 33.3392417,0.744123223 33.3392417,1.66109005 C33.3392417,2.57805687 34.0833649,3.32218009 35.0003318,3.32218009 C35.9172986,3.32218009 36.6614218,2.57805687 36.6614218,1.66109005 C36.6614218,0.744123223 35.9172986,0 35.0003318,0 Z" id="Path"></path>
                    <path d="M35.0003318,44.1844313 C34.0833649,44.1844313 33.3392417,44.9285545 33.3392417,45.8455213 C33.3392417,46.7624882 34.0833649,47.5066114 35.0003318,47.5066114 C35.9172986,47.5066114 36.6614218,46.7624882 36.6614218,45.8455213 C36.6614218,44.9287204 35.9172986,44.1844313 35.0003318,44.1844313 Z" id="Path"></path>
                    <path d="M16.5060664,6.17094787 C16.0475829,5.37689573 15.03109,5.10452607 14.2370379,5.56300948 C13.4429858,6.02315166 13.1706161,7.03798578 13.6290995,7.83203791 C14.0875829,8.62774882 15.1040758,8.90011848 15.898128,8.4399763 C16.6920142,7.98149289 16.9645498,6.96649289 16.5060664,6.17094787 Z" id="Path"></path>
                    <path d="M35.0003318,6.64436019 C34.0830332,6.64436019 33.3392417,7.38798578 33.3392417,8.30545024 L33.3392417,14.9498104 C33.3392417,15.8672749 34.0830332,16.6109005 35.0003318,16.6109005 C35.9176303,16.6109005 36.6614218,15.8672749 36.6614218,14.9498104 L36.6614218,8.30528436 C36.6614218,7.38798578 35.9176303,6.64436019 35.0003318,6.64436019 Z" id="Path"></path>
                    <path d="M23.1504265,17.6804739 L19.8284123,11.9248815 C19.3695972,11.1303318 18.3539336,10.8574645 17.5593839,11.3166114 C16.7648341,11.7752607 16.4924645,12.7909242 16.9511137,13.5856398 L20.2732938,19.3413981 C20.5811611,19.8743602 21.1393365,20.1722749 21.7136019,20.1722749 C21.9950948,20.1722749 22.2809005,20.1004502 22.5423223,19.9495024 C23.3367062,19.4908531 23.6090758,18.4750237 23.1504265,17.6804739 Z" id="Path"></path>
                    <path d="M52.4414455,11.3169431 C51.6463981,10.858128 50.6310664,11.1304976 50.1724171,11.9252133 L46.850237,17.6808057 C46.3915877,18.4751896 46.6639573,19.491019 47.4585071,19.9496682 C47.7200948,20.1006161 48.0055687,20.1724408 48.2872275,20.1724408 C48.8614929,20.1724408 49.4196682,19.8743602 49.7275355,19.341564 L53.0497156,13.5859716 C53.5083649,12.7914218 53.2359953,11.7754265 52.4414455,11.3169431 Z" id="Path"></path>
                    <path d="M69.8823934,45.8342417 C69.8822275,45.8138389 69.8810664,45.7936019 69.8800711,45.7730332 C69.8790758,45.7518009 69.8777488,45.7305687 69.87609,45.7091706 C69.8749289,45.6955687 69.874763,45.6818009 69.8732701,45.6683649 C69.8712796,45.6497867 69.8679621,45.6312085 69.8654739,45.6127962 C69.8624882,45.5920616 69.8590047,45.571327 69.8553555,45.5504265 C69.8525355,45.5348341 69.8507109,45.5190758 69.8473934,45.5036493 C69.8440758,45.4882227 69.8395972,45.4729621 69.8359479,45.4575355 C69.8308057,45.4363033 69.8251659,45.4150711 69.8191943,45.3938389 C69.8143839,45.3767536 69.810237,45.3593365 69.8049289,45.3424171 C69.8011137,45.3304739 69.7961374,45.3186967 69.7919905,45.3067536 C69.7841943,45.2841943 69.7759005,45.2618009 69.7672749,45.2394076 C69.7603081,45.2216588 69.7538389,45.2037441 69.7463744,45.186327 C69.7423934,45.1772038 69.7375829,45.1682464 69.733436,45.1591232 C69.7228199,45.1357346 69.7115403,45.1128436 69.6999289,45.0897867 C69.6909716,45.0722038 69.682346,45.0546209 69.6727251,45.0375355 C69.6710664,45.0345498 69.6699052,45.031564 69.6682464,45.0285782 L59.7148104,27.42109 C59.7098341,27.4122986 59.7035308,27.4048341 59.6983886,27.3962085 C59.6706872,27.3489336 59.6404976,27.3029858 59.6079858,27.2586967 C59.5995261,27.2470853 59.5913981,27.2353081 59.5827725,27.2238626 C59.5414692,27.1702844 59.4971801,27.1183649 59.4492417,27.0699289 C59.4485782,27.0692654 59.4477488,27.0686019 59.4469194,27.0677725 C59.4014692,27.0219905 59.3522038,26.9793602 59.3011137,26.9387204 C59.2883412,26.9286019 59.2754028,26.9191469 59.2624645,26.9095261 C59.221327,26.8788389 59.1781991,26.8499763 59.1335782,26.8226066 C59.1191469,26.8138152 59.1050474,26.8045261 59.0902844,26.7962322 C59.0337204,26.7640521 58.9753318,26.7340284 58.9139573,26.7081517 C58.9132938,26.7078199 58.9126303,26.7074882 58.9118009,26.7071564 C58.9116351,26.7069905 58.9113033,26.7069905 58.9111374,26.7068246 C58.8494313,26.6809479 58.7867299,26.6603791 58.7238626,26.6422986 C58.7062796,26.6373223 58.6885308,26.6335071 58.670782,26.6290284 C58.6213507,26.6165877 58.5717536,26.6066351 58.5219905,26.5988389 C58.5042417,26.5961848 58.4868246,26.5931991 58.46891,26.5910427 C58.4023934,26.5829147 58.3358768,26.5777725 58.2696919,26.5777725 C58.2695261,26.5777725 58.2693602,26.5777725 58.2690284,26.5777725 L58.2686967,26.5777725 C58.2658768,26.5777725 58.2632227,26.5777725 58.2604028,26.5777725 L35.0003318,26.5777725 L34.996019,26.5777725 L11.7480569,26.5777725 C11.679218,26.5776066 11.6103791,26.5829147 11.5412085,26.5913744 C11.5251185,26.5933649 11.5093602,26.5961848 11.493436,26.598673 C11.4431754,26.6064692 11.3929147,26.6165877 11.3428199,26.6291943 C11.3242417,26.6338389 11.3058294,26.6381517 11.2875829,26.6434597 C11.2333412,26.6590521 11.1794313,26.6776303 11.126019,26.6990284 C11.1170616,26.7026777 11.1079384,26.7051659 11.098981,26.708981 C11.0974882,26.7096445 11.0958294,26.7099763 11.0943365,26.7106398 C11.0342891,26.7361848 10.9772275,26.7657109 10.9219905,26.7973934 C10.9080569,26.8053555 10.8949526,26.8143128 10.8813507,26.8226066 C10.836564,26.8498104 10.793436,26.8788389 10.7521327,26.9098578 C10.7385308,26.9199763 10.7250948,26.9302607 10.7116588,26.9408768 C10.665545,26.9775355 10.6214218,27.0163507 10.5799526,27.0573223 C10.5744787,27.0626303 10.568673,27.0674408 10.5633649,27.0729147 C10.5157583,27.1211848 10.4714692,27.1724408 10.4304976,27.2258531 C10.4227014,27.2359716 10.4157346,27.2467536 10.4081043,27.2570379 C10.3754265,27.3016588 10.3449052,27.3479384 10.3170379,27.395545 C10.3120616,27.4041706 10.3057583,27.4116351 10.300782,27.4202607 L0.353981043,44.9912559 C0.353649289,44.9917536 0.353483412,44.9920853 0.353151659,44.9925829 L0.333412322,45.0272512 C0.331753555,45.030237 0.330592417,45.0333886 0.328767773,45.0363744 C0.318483412,45.0547867 0.309194313,45.0736967 0.29957346,45.0926066 C0.287630332,45.1159953 0.276018957,45.1393839 0.265236967,45.163436 C0.261919431,45.1707346 0.258270142,45.1780332 0.254952607,45.1853318 C0.246824645,45.2040758 0.23985782,45.2233175 0.232393365,45.2425592 C0.223436019,45.2654502 0.214810427,45.2883412 0.206848341,45.3117299 C0.203364929,45.3216825 0.199383886,45.3316351 0.196232227,45.3415877 C0.19042654,45.3598341 0.186113744,45.3785782 0.180805687,45.3971564 C0.174668246,45.4190521 0.168530806,45.4409479 0.163388626,45.4633412 C0.160236967,45.4766114 0.156421801,45.4897156 0.153601896,45.5029858 C0.150118483,45.5197393 0.147962085,45.5369905 0.144976303,45.55391 C0.141161137,45.5754739 0.137345972,45.5970379 0.13436019,45.6190995 C0.132203791,45.6353555 0.129383886,45.6516114 0.127725118,45.6678673 C0.126066351,45.6827962 0.125900474,45.697891 0.12457346,45.7128199 C0.122748815,45.7348815 0.121090047,45.7567773 0.120260664,45.7790047 C0.119597156,45.7972512 0.118601896,45.8154976 0.118436019,45.8337441 C0.118436019,45.8375592 0.117938389,45.8413744 0.117938389,45.8451896 C0.117938389,45.8554739 0.119265403,45.8655924 0.11943128,45.8758768 C0.119763033,45.8977725 0.120592417,45.9196682 0.121753555,45.9417299 C0.122748815,45.9598104 0.123744076,45.977891 0.125402844,45.9959716 C0.126729858,46.0113981 0.128554502,46.0264929 0.130379147,46.0417536 C0.132867299,46.062654 0.135853081,46.0833886 0.139170616,46.1042891 C0.141824645,46.1207109 0.144312796,46.1371327 0.147464455,46.1533886 C0.150616114,46.1703081 0.153933649,46.1870616 0.157748815,46.2038152 C0.162227488,46.2238863 0.167369668,46.2436256 0.172511848,46.2635308 C0.176327014,46.2782938 0.180308057,46.2930569 0.184454976,46.3078199 C0.189597156,46.3255687 0.194739336,46.3431517 0.200379147,46.3607346 C0.206516588,46.3796445 0.213483412,46.3982227 0.22028436,46.4168009 C0.225592417,46.4312322 0.231066351,46.4456635 0.236706161,46.4600948 C0.243672986,46.477346 0.250473934,46.4945972 0.257938389,46.5116825 C0.265402844,46.5289336 0.273696682,46.5458531 0.281824645,46.5627725 C0.2892891,46.5781991 0.296919431,46.5934597 0.30471564,46.6087204 C0.313175355,46.6248104 0.321469194,46.6409005 0.33042654,46.6568246 C0.338886256,46.6719194 0.347677725,46.6866825 0.356635071,46.7016114 C0.366587678,46.7181991 0.377037915,46.7346209 0.387654028,46.7508768 C0.397440758,46.7659716 0.407559242,46.7807346 0.417843602,46.7954976 C0.426966825,46.808436 0.435924171,46.8213744 0.445545024,46.8343128 C0.457819905,46.8509005 0.47042654,46.8669905 0.483364929,46.8832464 C0.49514218,46.8978436 0.507417062,46.9119431 0.519526066,46.9262085 C0.526492891,46.9343365 0.532298578,46.9429621 0.539597156,46.95109 L33.96891,84.3748815 C34.0098815,84.4208294 34.053673,84.4641232 34.0991232,84.504763 C34.1057583,84.5105687 34.112891,84.515545 34.1195261,84.5213507 C34.1674645,84.5629858 34.2177251,84.6013033 34.2696445,84.6369668 C34.286564,84.6485782 34.3038152,84.6595261 34.3210664,84.6704739 C34.3695024,84.7009953 34.4192654,84.7288626 34.4703555,84.7544076 C34.484455,84.7613744 34.497891,84.7691706 34.5121564,84.7758057 C34.5766825,84.8054976 34.6428673,84.8308768 34.7108768,84.8522749 C34.7271327,84.8574171 34.7437204,84.8610664 34.7601422,84.865545 C34.8147156,84.8808057 34.8701185,84.8932464 34.9261848,84.9030332 C34.9467536,84.9065166 34.9671564,84.9101659 34.987891,84.9129858 C35.0603791,84.9226066 35.1331991,84.9292417 35.207346,84.9292417 C35.2091706,84.9292417 35.2108294,84.9292417 35.2124882,84.9292417 C35.2868009,84.9290758 35.3599526,84.922109 35.4326066,84.9121564 C35.4533412,84.9093365 35.4735782,84.9056872 35.4943128,84.9020379 C35.550545,84.8920853 35.6062796,84.8794787 35.661019,84.8638863 C35.6774408,84.8592417 35.6940284,84.8555924 35.7102844,84.8502844 C35.7782938,84.8287204 35.8446445,84.8028436 35.9093365,84.772654 C35.923436,84.766019 35.936872,84.7582227 35.9508057,84.7512559 C36.0020616,84.725545 36.0519905,84.6971801 36.1004265,84.6661611 C36.1178436,84.6550474 36.1349289,84.6439336 36.1520142,84.6321564 C36.203436,84.5964929 36.2531991,84.5581754 36.3006398,84.5167062 C36.3077725,84.5104028 36.3155687,84.5049289 36.3227014,84.4986256 C36.3681517,84.4573223 36.4119431,84.4136967 36.4530806,84.3670853 L69.4675355,46.9447867 C69.4735071,46.9379858 69.4783175,46.9306872 69.4841232,46.9238863 C69.4950711,46.9111137 69.506019,46.8981754 69.5166351,46.8850711 C69.5309005,46.8673223 69.5445024,46.8494076 69.5579384,46.8311611 C69.5672275,46.8185545 69.5763507,46.8059479 69.5853081,46.7931754 C69.5945972,46.7799052 69.6035545,46.7663033 69.6125118,46.7527014 C69.6241232,46.7349526 69.6350711,46.7170379 69.646019,46.6989573 C69.6549763,46.6840284 69.6639336,46.6694313 69.6723934,46.6543365 C69.6803555,46.6399052 69.6878199,46.6253081 69.6954502,46.610545 C69.70391,46.5941232 69.7120379,46.5773697 69.72,46.5606161 C69.7282938,46.5433649 69.7367536,46.5262796 69.7443839,46.5088626 C69.7511848,46.4932701 69.7571564,46.4775118 69.7634597,46.4617536 C69.7695972,46.446327 69.7754028,46.4307346 69.7810427,46.4149763 C69.7880095,46.3959005 69.7953081,46.3768246 69.8016114,46.3575829 C69.8067536,46.3416588 69.8110664,46.3255687 69.8158768,46.3094787 C69.8205213,46.2935545 69.8245024,46.2774645 69.8286493,46.2613744 C69.8337915,46.2411374 69.8394313,46.2210664 69.8437441,46.2004976 C69.8470616,46.1854028 69.8498815,46.1701422 69.8527014,46.1547156 C69.856019,46.1369668 69.858673,46.1190521 69.8614929,46.1011374 C69.8646445,46.080237 69.8679621,46.0595024 69.8704502,46.038436 C69.872109,46.0248341 69.8736019,46.0110664 69.874763,45.9972986 C69.8765877,45.9773934 69.8774171,45.9574882 69.8785782,45.9372512 C69.8797393,45.9158531 69.8807346,45.894455 69.8810664,45.8732227 C69.8812322,45.8642654 69.8823934,45.8554739 69.8823934,45.8465166 C69.882891,45.8417062 69.8823934,45.8380569 69.8823934,45.8342417 Z M55.7715877,29.8992891 L50.3859005,42.75109 L38.7459953,29.8992891 L55.7715877,29.8992891 Z M31.2810427,29.8992891 L19.7464692,42.7690047 L14.2594313,29.8992891 L31.2810427,29.8992891 Z M11.5354028,31.9810427 L16.7384597,44.1844313 L4.62796209,44.1844313 L11.5354028,31.9810427 Z M5.49018957,47.5066114 L18.1545498,47.5066114 L29.7196445,74.6302844 L5.49018957,47.5066114 Z M35.1947393,79.0016351 L21.766019,47.5066114 L28.3561374,47.5066114 C29.273436,47.5066114 30.0172275,46.7629858 30.0172275,45.8455213 C30.0172275,44.9280569 29.273436,44.1844313 28.3561374,44.1844313 L22.9392654,44.1844313 L35.0069668,30.7195498 L47.2020616,44.1844313 L41.6448578,44.1844313 C40.7275592,44.1844313 39.9837678,44.9280569 39.9837678,45.8455213 C39.9837678,46.7629858 40.7275592,47.5066114 41.6448578,47.5066114 L48.3932227,47.5066114 L35.1947393,79.0016351 Z M40.6429621,74.5964455 L51.995237,47.5066114 L64.5414929,47.5066114 L40.6429621,74.5964455 Z M53.387109,44.1844313 L58.4906398,32.00609 L65.3748578,44.1844313 L53.387109,44.1844313 Z" id="Shape" fill-rule="nonzero"></path>
                </g>
            </g>
        </g>
    </g>
</svg>