<?xml version="1.0" encoding="UTF-8"?>
<svg width="70px" height="71px" viewBox="0 0 70 71" version="1.1" xmlns="http://www.w3.org/2000/svg" xmlns:xlink="http://www.w3.org/1999/xlink">
    <!-- Generator: sketchtool 52.2 (67145) - http://www.bohemiancoding.com/sketch -->
    <title>12B75EB1-34A5-4A87-A880-7C8D434E8BDB</title>
    <desc>Created with sketchtool.</desc>
    <g id="New-garden" stroke="none" stroke-width="1" fill="none" fill-rule="evenodd">
        <g id="home" transform="translate(-1305.000000, -3010.000000)" fill="#48AA48">
            <g id="Group-9" transform="translate(0.000000, 2716.000000)">
                <g id="002-guarantee" transform="translate(1305.000000, 294.000000)">
                    <path d="M58.8398592,44.1698832 C61.7995769,39.6749167 63.5250432,34.2985734 63.5250432,28.5255837 C63.5250432,12.7964427 50.7280601,-2.84217094e-14 34.9989193,-2.84217094e-14 C19.2697783,-2.84217094e-14 6.47333563,12.7964427 6.47333563,28.5255837 C6.47333563,34.2985734 8.19880188,39.6749167 11.1579792,44.1698832 L0,60.4426568 L12.767802,58.0622375 L15.1487617,70.8300395 L25.6712419,55.4834949 C28.5958343,56.498348 31.7338809,57.0511673 34.9989193,57.0511673 C38.2644979,57.0511673 41.4025445,56.498348 44.3265965,55.4834949 L54.8496171,70.8300395 L57.2300364,58.0622375 L69.9978384,60.4426568 L58.8398592,44.1698832 Z M17.4048913,60.1573307 L16.1063333,53.1927803 L9.14232344,54.4918788 L13.8415576,47.6381084 C16.0922833,50.1271461 18.7753211,52.2173758 21.7701643,53.7920733 L17.4048913,60.1573307 Z M10.6478508,28.5255837 C10.6478508,15.0985054 21.5718411,4.17451516 34.9989193,4.17451516 C48.4265379,4.17451516 59.350528,15.0985054 59.350528,28.5255837 C59.350528,41.9532022 48.4265379,52.8771924 34.9989193,52.8771924 C21.5718411,52.8771924 10.6478508,41.9532022 10.6478508,28.5255837 Z M53.8915051,53.1927803 L52.5929471,60.1573307 L48.2282146,53.7920733 C51.2230576,52.2173758 53.9060955,50.1271461 56.1568213,47.6381084 L60.8560555,54.4913383 L53.8915051,53.1927803 Z" id="Shape" fill-rule="nonzero"></path>
                    <path d="M26.55,23 L24,23.45 L24,21.725 L28.6,21 L28.6,37.35 L26.55,37.35 L26.55,23 Z M39.95,37.6 C35.3833105,37.6 33.1,34.900027 33.1,29.5 C33.1,26.6833192 33.6291614,24.5625071 34.6875,23.1375 C35.7458386,21.7124929 37.4999877,21 39.95,21 C42.3833455,21 44.1291614,21.7124929 45.1875,23.1375 C46.2458386,24.5625071 46.775,26.6833192 46.775,29.5 C46.775,34.900027 44.5000227,37.6 39.95,37.6 Z M39.95,35.85 C41.6333417,35.85 42.8499963,35.3000055 43.6,34.2 C44.3500038,33.0999945 44.725,31.5333435 44.725,29.5 C44.725,27.233322 44.3625036,25.5416722 43.6375,24.425 C42.9124964,23.3083277 41.683342,22.75 39.95,22.75 C38.1999913,22.75 36.9625036,23.3041611 36.2375,24.4125 C35.5124964,25.5208389 35.15,27.2166552 35.15,29.5 C35.15,31.5166767 35.5291629,33.0791611 36.2875,34.1875 C37.0458371,35.2958389 38.2666583,35.85 39.95,35.85 Z" id="10"></path>
                </g>
            </g>
        </g>
    </g>
</svg>