<?xml version="1.0" encoding="UTF-8"?>
<svg width="100px" height="63px" viewBox="0 0 100 63" version="1.1" xmlns="http://www.w3.org/2000/svg" xmlns:xlink="http://www.w3.org/1999/xlink">
    <!-- Generator: sketchtool 52.2 (67145) - http://www.bohemiancoding.com/sketch -->
    <title>E20A7AA7-EB52-49C0-8271-495A1683FBE9</title>
    <desc>Created with sketchtool.</desc>
    <g id="New-garden" stroke="none" stroke-width="1" fill="none" fill-rule="evenodd">
        <g id="home" transform="translate(-910.000000, -3014.000000)" fill="#48AA48">
            <g id="Group-9" transform="translate(0.000000, 2716.000000)">
                <g id="del" transform="translate(910.000000, 298.000000)">
                    <path d="M92.9996094,26.7094722 L90.4099609,16.3971111 C91.1179688,16.2473889 91.6492188,15.6220556 91.6492188,14.8728611 L91.6492188,13.2101667 C91.6492188,9.60011111 88.6990234,6.66322222 85.0730469,6.66322222 L73.2777344,6.66322222 L73.2777344,3.23361111 C73.2777344,1.45716667 71.8261719,0.0120555556 70.0417969,0.0120555556 L9.91640625,0.0120555556 C8.13203125,0.0120555556 6.68046875,1.45716667 6.68046875,3.23361111 L6.68046875,31.5 C6.68046875,32.3608056 7.38144531,33.0588611 8.24628906,33.0588611 C9.1109375,33.0588611 9.81210937,32.361 9.81210937,31.5 L9.81210937,3.23361111 C9.81210937,3.17625 9.85878906,3.12977778 9.91640625,3.12977778 L70.0416016,3.12977778 C70.0992188,3.12977778 70.1458984,3.17625 70.1458984,3.23361111 L70.1458984,31.5003889 C70.1458984,32.3611944 70.846875,33.05925 71.7117188,33.05925 C72.5763672,33.05925 73.2775391,32.3613889 73.2775391,31.5003889 L73.2775391,29.7332778 L91.7480469,29.7332778 C91.7496094,29.7332778 91.7507813,29.7336667 91.7521484,29.7336667 C91.7537109,29.7336667 91.7550781,29.7334722 91.7564453,29.7334722 C94.0292969,29.7350278 95.9591797,31.2201944 96.6220703,33.2667222 L91.7533203,33.2667222 C90.8886719,33.2667222 90.1875,33.9645833 90.1875,34.8255833 L90.1875,38.1509722 C90.1875,40.8442222 92.3882813,43.0352222 95.0935547,43.0352222 L96.8681641,43.0352222 L96.8681641,49.8938611 L92.7740234,49.8938611 C91.4291016,46.0277222 87.7375,43.2428889 83.4025391,43.2428889 C79.0675781,43.2428889 75.3757813,46.0277222 74.0310547,49.8938611 L73.2771484,49.8938611 L73.2771484,38.1507778 C73.2771484,37.2899722 72.5761719,36.5919167 71.7113281,36.5919167 C70.8466797,36.5919167 70.1455078,37.2897778 70.1455078,38.1507778 L70.1455078,49.8934722 L37.6595703,49.8934722 C36.3146484,46.0273333 32.6230469,43.2425 28.2880859,43.2425 C23.953125,43.2425 20.2613281,46.0273333 18.9166016,49.8934722 L9.91640625,49.8934722 C9.85878906,49.8934722 9.81210938,49.847 9.81210938,49.7896389 L9.81210938,46.3602222 L16.5970703,46.3602222 C17.4617188,46.3602222 18.1628906,45.6623611 18.1628906,44.8013611 C18.1628906,43.9403611 17.4619141,43.2425 16.5970703,43.2425 L1.56582031,43.2425 C0.701171875,43.2425 0,43.9403611 0,44.8013611 C0,45.6623611 0.700976563,46.3602222 1.56582031,46.3602222 L6.68066406,46.3602222 L6.68066406,49.7896389 C6.68066406,51.5660833 8.13222656,53.0111944 9.91660156,53.0111944 L18.3744141,53.0111944 C18.3740234,53.0458056 18.3716797,53.0802222 18.3716797,53.1150278 C18.3716797,58.5586944 22.8203125,62.9873611 28.2880859,62.9873611 C33.7558594,62.9873611 38.2044922,58.5586944 38.2044922,53.1150278 C38.2044922,53.0800278 38.2021484,53.0458056 38.2017578,53.0111944 L73.4888672,53.0111944 C73.4884766,53.0458056 73.4861328,53.0802222 73.4861328,53.1150278 C73.4861328,58.5586944 77.9347656,62.9873611 83.4025391,62.9873611 C88.8703125,62.9873611 93.3189453,58.5586944 93.3189453,53.1150278 C93.3189453,53.0800278 93.3166016,53.0458056 93.3162109,53.0111944 L98.4339844,53.0111944 C99.2986328,53.0111944 99.9998047,52.3133333 99.9998047,51.4523333 L99.9998047,34.8251944 C100,30.7200833 96.9576172,27.3093333 92.9996094,26.7094722 Z M73.2777344,9.78075 L85.0730469,9.78075 C86.9724609,9.78075 88.5177734,11.3191944 88.5177734,13.2101667 L88.5177734,13.314 L73.2777344,13.314 L73.2777344,9.78075 Z M73.2777344,26.61575 L73.2777344,16.4315278 L87.1908203,16.4315278 L89.7482422,26.61575 L73.2777344,26.61575 Z M28.2880859,59.8702222 C24.546875,59.8702222 21.503125,56.8401944 21.503125,53.1154167 C21.503125,49.3906389 24.546875,46.3606111 28.2880859,46.3606111 C32.0292969,46.3606111 35.0730469,49.3906389 35.0730469,53.1154167 C35.0730469,56.8401944 32.0292969,59.8702222 28.2880859,59.8702222 Z M83.4029297,59.8702222 C79.6617188,59.8702222 76.6179688,56.8401944 76.6179688,53.1154167 C76.6179688,49.3906389 79.6617188,46.3606111 83.4029297,46.3606111 C87.1441406,46.3606111 90.1878906,49.3906389 90.1878906,53.1154167 C90.1878906,56.8401944 87.1441406,59.8702222 83.4029297,59.8702222 Z M96.8685547,39.9175 L95.0939453,39.9175 C94.1154297,39.9175 93.3193359,39.1249444 93.3193359,38.1507778 L93.3193359,36.3840556 L96.8683594,36.3840556 L96.8683594,39.9175 L96.8685547,39.9175 Z" id="Shape" fill-rule="nonzero"></path>
                    <path d="M28.2880859,49.8938611 C26.5037109,49.8938611 25.0521484,51.3389722 25.0521484,53.1154167 C25.0521484,54.8918611 26.5037109,56.3369722 28.2880859,56.3369722 C30.0724609,56.3369722 31.5240234,54.8918611 31.5240234,53.1154167 C31.5240234,51.3389722 30.0724609,49.8938611 28.2880859,49.8938611 Z" id="Path"></path>
                    <path d="M83.4029297,49.8938611 C81.6185547,49.8938611 80.1669922,51.3389722 80.1669922,53.1154167 C80.1669922,54.8918611 81.6185547,56.3369722 83.4029297,56.3369722 C85.1873047,56.3369722 86.6388672,54.8918611 86.6388672,53.1154167 C86.6388672,51.3389722 85.1873047,49.8938611 83.4029297,49.8938611 Z" id="Path"></path>
                    <path d="M65.03125,43.2430833 L41.6492187,43.2430833 C40.7845703,43.2430833 40.0833984,43.9409444 40.0833984,44.8019444 C40.0833984,45.6629444 40.784375,46.3608056 41.6492187,46.3608056 L65.03125,46.3608056 C65.8958984,46.3608056 66.5970703,45.6629444 66.5970703,44.8019444 C66.5970703,43.9409444 65.8960937,43.2430833 65.03125,43.2430833 Z" id="Path"></path>
                    <path d="M24.9478516,36.5921111 L4.90605469,36.5921111 C4.04140625,36.5921111 3.34023438,37.2899722 3.34023438,38.1509722 C3.34023438,39.0119722 4.04121094,39.7098333 4.90605469,39.7098333 L24.9478516,39.7098333 C25.8125,39.7098333 26.5136719,39.0119722 26.5136719,38.1509722 C26.5136719,37.2899722 25.8125,36.5921111 24.9478516,36.5921111 Z" id="Path"></path>
                    <path d="M54.4474609,15.4330556 C53.8361328,14.8244444 52.8445313,14.8244444 52.2332031,15.43325 L38.3089844,29.2953889 L31.0654297,22.0840278 C30.4539062,21.4752222 29.4625,21.4752222 28.8511719,22.0840278 C28.2396484,22.6928333 28.2396484,23.6796389 28.8511719,24.2884444 L37.2019531,32.6021111 C37.5076172,32.9066111 37.9083984,33.0586667 38.3089844,33.0586667 C38.7095703,33.0586667 39.1105469,32.9066111 39.4160156,32.6021111 L54.4472656,17.6376667 C55.0587891,17.0286667 55.0587891,16.0418611 54.4474609,15.4330556 Z" id="Path"></path>
                </g>
            </g>
        </g>
    </g>
</svg>