<?xml version="1.0" encoding="UTF-8"?>
<svg width="81px" height="39px" viewBox="0 0 81 39" version="1.1" xmlns="http://www.w3.org/2000/svg" xmlns:xlink="http://www.w3.org/1999/xlink">
    <!-- Generator: Sketch 52.2 (67145) - http://www.bohemiancoding.com/sketch -->
    <title>Group 15</title>
    <desc>Created with Sketch.</desc>
    <g id="New-garden" stroke="none" stroke-width="1" fill="none" fill-rule="evenodd" opacity="0.5">
        <g id="product_page" transform="translate(-1430.000000, -5029.000000)">
            <g id="footer" transform="translate(0.000000, 4818.000000)">
                <g id="Group-15" transform="translate(1430.000000, 211.000000)">
                    <path d="M5.92,3.82 C5.92,4.9266722 5.7066688,5.7333308 5.28,6.24 C4.8533312,6.7466692 4.1666714,7 3.22,7 L0.7,7 L0.7,0.56 L3.22,0.56 C4.1600047,0.56 4.84499785,0.81499745 5.275,1.325 C5.70500215,1.83500255 5.92,2.6666609 5.92,3.82 Z M5.1,3.82 C5.1,3.1399966 5.033334,2.61166855 4.9,2.235 C4.766666,1.85833145 4.55500145,1.5933341 4.265,1.44 C3.97499855,1.2866659 3.5766692,1.21 3.07,1.21 L1.52,1.21 L1.52,6.36 L3.07,6.36 C3.5500024,6.36 3.93499855,6.2900007 4.225,6.15 C4.51500145,6.0099993 4.7333326,5.7566685 4.88,5.39 C5.0266674,5.0233315 5.1,4.5000034 5.1,3.82 Z M9.94,5.01 C9.9666668,5.3766685 10.0449994,5.66166565 10.175,5.865 C10.3050007,6.06833435 10.4999987,6.21499955 10.76,6.305 C11.0200013,6.39500045 11.3699978,6.44 11.81,6.44 C12.2966691,6.44 12.7433313,6.3566675 13.15,6.19 L13.15,6.83 C12.7433313,7.0100009 12.2433363,7.1 11.65,7.1 C10.8033291,7.1 10.1700021,6.8966687 9.75,6.49 C9.3299979,6.0833313 9.12,5.4566709 9.12,4.61 C9.12,3.8299961 9.3066648,3.2266688 9.68,2.8 C10.0533352,2.3733312 10.6233295,2.16 11.39,2.16 C12.0633367,2.16 12.5749983,2.3399982 12.925,2.7 C13.2750018,3.0600018 13.45,3.5333304 13.45,4.12 L13.45,5.01 L9.94,5.01 Z M11.41,2.82 C10.8633306,2.82 10.4816678,2.94833205 10.265,3.205 C10.0483323,3.46166795 9.94,3.8666639 9.94,4.42 L12.72,4.42 L12.72,4.03 C12.72,3.6366647 12.6150011,3.3366677 12.405,3.13 C12.194999,2.9233323 11.8633356,2.82 11.41,2.82 Z M19.7,5.76 C19.7,5.6066659 19.6633337,5.48500045 19.59,5.395 C19.5166663,5.30499955 19.4116674,5.22833365 19.275,5.165 C19.1383327,5.10166635 18.9233348,5.0233338 18.63,4.93 L18.36,4.84 C18.026665,4.7266661 17.765001,4.62166715 17.575,4.525 C17.3849991,4.42833285 17.2333339,4.29500085 17.12,4.125 C17.0066661,3.95499915 16.95,3.7333347 16.95,3.46 C16.95,3.0333312 17.0999985,2.7100011 17.4,2.49 C17.7000015,2.2699989 18.1699968,2.16 18.81,2.16 C19.3033358,2.16 19.749998,2.2233327 20.15,2.35 L20.15,3.07 C19.7299979,2.9299993 19.3266686,2.86 18.94,2.86 C18.5133312,2.86 18.2116676,2.9033329 18.035,2.99 C17.8583325,3.0766671 17.77,3.2299989 17.77,3.45 C17.77,3.6033341 17.808333,3.7233329 17.885,3.81 C17.9616671,3.8966671 18.071666,3.96833305 18.215,4.025 C18.3583341,4.08166695 18.6099982,4.1666661 18.97,4.28 C19.3633353,4.4000006 19.6683323,4.5199994 19.885,4.64 C20.1016678,4.7600006 20.2616662,4.9066658 20.365,5.08 C20.4683339,5.2533342 20.52,5.4766653 20.52,5.75 C20.52,6.6500045 19.8933396,7.1 18.64,7.1 C18.3399985,7.1 18.0500014,7.0800002 17.77,7.04 C17.4899986,6.9999998 17.2566676,6.946667 17.07,6.88 L17.07,6.16 C17.5233356,6.3200008 18.0099974,6.4 18.53,6.4 C18.9633355,6.4 19.2666658,6.35500045 19.44,6.265 C19.6133342,6.17499955 19.7,6.0066679 19.7,5.76 Z M24.87,1.15 L24.87,0.4 L25.78,0.4 L25.78,1.15 L24.87,1.15 Z M25.77,7 L24.95,7 L24.95,2.91 L24.22,2.91 L24.3,2.26 L25.77,2.26 L25.77,7 Z M32.93,7.55 C32.93,7.3766658 32.868334,7.2533337 32.745,7.18 C32.6216661,7.1066663 32.4033349,7.07 32.09,7.07 L30.83,7.07 C30.3966645,7.07 30.0700011,6.99500075 29.85,6.845 C29.6299989,6.69499925 29.52,6.4766681 29.52,6.19 C29.52,5.9833323 29.5833327,5.79500085 29.71,5.625 C29.8366673,5.45499915 30.0199988,5.3333337 30.26,5.26 C29.7399974,5.0066654 29.48,4.5400034 29.48,3.86 C29.48,3.2733304 29.6499983,2.8433347 29.99,2.57 C30.3300017,2.2966653 30.8566631,2.16 31.57,2.16 C31.8166679,2.16 32.0899985,2.193333 32.39,2.26 L34.1,2.26 L34.07,2.82 L33.21,2.82 C33.4966681,3.0666679 33.64,3.4133311 33.64,3.86 C33.64,4.393336 33.4850016,4.8033319 33.175,5.09 C32.8649985,5.3766681 32.3966698,5.52 31.77,5.52 C31.6299993,5.52 31.4366679,5.5033335 31.19,5.47 C30.9699989,5.4833334 30.7733342,5.54499945 30.6,5.655 C30.4266658,5.76500055 30.34,5.9033325 30.34,6.07 C30.34,6.1900006 30.3866662,6.27499975 30.48,6.325 C30.5733338,6.37500025 30.7366655,6.4 30.97,6.4 L32.28,6.4 C32.7533357,6.4 33.1166654,6.4966657 33.37,6.69 C33.6233346,6.8833343 33.75,7.1599982 33.75,7.52 C33.75,7.9666689 33.5650019,8.28499905 33.195,8.475 C32.8249982,8.66500095 32.2666704,8.76 31.52,8.76 C30.7266627,8.76 30.0933357,8.6766675 29.62,8.51 L29.62,7.83 C29.8800013,7.9166671 30.1749984,7.9833331 30.505,8.03 C30.8350017,8.0766669 31.1599984,8.1 31.48,8.1 C31.8466685,8.1 32.129999,8.0866668 32.33,8.06 C32.530001,8.0333332 32.6799995,7.98166705 32.78,7.905 C32.8800005,7.82833295 32.93,7.7100008 32.93,7.55 Z M31.57,4.9 C32.036669,4.9 32.3616658,4.8233341 32.545,4.67 C32.7283343,4.5166659 32.82,4.2466686 32.82,3.86 C32.82,3.4733314 32.725001,3.1933342 32.535,3.02 C32.3449991,2.8466658 32.0233356,2.76 31.57,2.76 C31.1233311,2.76 30.800001,2.84499915 30.6,3.015 C30.399999,3.18500085 30.3,3.4666647 30.3,3.86 C30.3,4.2333352 30.3966657,4.4999992 30.59,4.66 C30.7833343,4.8200008 31.1099977,4.9 31.57,4.9 Z M40.83,7 L40.83,3.93 C40.83,3.6433319 40.7933337,3.42166745 40.72,3.265 C40.6466663,3.10833255 40.5250009,2.99500035 40.355,2.925 C40.1849992,2.85499965 39.9400016,2.82 39.62,2.82 C39.3266652,2.82 39.0500013,2.8733328 38.79,2.98 C38.5299987,3.0866672 38.3066676,3.2333324 38.12,3.42 L38.12,7 L37.3,7 L37.3,2.26 L38.04,2.26 L38.09,2.8 C38.6100026,2.3733312 39.2233298,2.16 39.93,2.16 C40.530003,2.16 40.9666653,2.2999986 41.24,2.58 C41.5133347,2.8600014 41.65,3.299997 41.65,3.9 L41.65,7 L40.83,7 Z M46.12,5.01 C46.1466668,5.3766685 46.2249994,5.66166565 46.355,5.865 C46.4850007,6.06833435 46.6799987,6.21499955 46.94,6.305 C47.2000013,6.39500045 47.5499978,6.44 47.99,6.44 C48.4766691,6.44 48.9233313,6.3566675 49.33,6.19 L49.33,6.83 C48.9233313,7.0100009 48.4233363,7.1 47.83,7.1 C46.9833291,7.1 46.3500021,6.8966687 45.93,6.49 C45.5099979,6.0833313 45.3,5.4566709 45.3,4.61 C45.3,3.8299961 45.4866648,3.2266688 45.86,2.8 C46.2333352,2.3733312 46.8033295,2.16 47.57,2.16 C48.2433367,2.16 48.7549983,2.3399982 49.105,2.7 C49.4550018,3.0600018 49.63,3.5333304 49.63,4.12 L49.63,5.01 L46.12,5.01 Z M47.59,2.82 C47.0433306,2.82 46.6616678,2.94833205 46.445,3.205 C46.2283323,3.46166795 46.12,3.8666639 46.12,4.42 L48.9,4.42 L48.9,4.03 C48.9,3.6366647 48.7950011,3.3366677 48.585,3.13 C48.374999,2.9233323 48.0433356,2.82 47.59,2.82 Z M53.13,4.7 C53.13,3.8666625 53.3233314,3.23500215 53.71,2.805 C54.0966686,2.37499785 54.6333299,2.16 55.32,2.16 C55.6266682,2.16 55.9033321,2.1966663 56.15,2.27 C56.3966679,2.3433337 56.6333322,2.4566659 56.86,2.61 L56.86,0.26 L57.68,0.26 L57.68,7 L56.98,7 L56.92,6.5 C56.6999989,6.7066677 56.4583347,6.85833285 56.195,6.955 C55.9316654,7.05166715 55.6233351,7.1 55.27,7.1 C54.5766632,7.1 54.0466685,6.90833525 53.68,6.525 C53.3133315,6.14166475 53.13,5.5333375 53.13,4.7 Z M55.5,2.82 C54.966664,2.82 54.5750013,2.97166515 54.325,3.275 C54.0749988,3.57833485 53.95,4.0533301 53.95,4.7 C53.95,5.3200031 54.0666655,5.76499865 54.3,6.035 C54.5333345,6.30500135 54.9266639,6.44 55.48,6.44 C56.0466695,6.44 56.5066649,6.2500019 56.86,5.87 L56.86,3.29 C56.5066649,2.9766651 56.0533361,2.82 55.5,2.82 Z M72.43,4.59 C72.43,5.4300042 72.2433352,6.05833125 71.87,6.475 C71.4966648,6.89166875 70.9700034,7.1 70.29,7.1 C69.9366649,7.1 69.6283347,7.05166715 69.365,6.955 C69.1016654,6.85833285 68.8600011,6.7066677 68.64,6.5 L68.58,7 L67.88,7 L67.88,0.26 L68.7,0.26 L68.7,2.61 C69.1333355,2.3099985 69.6599969,2.16 70.28,2.16 C71.7133405,2.16 72.43,2.9699919 72.43,4.59 Z M70.06,2.82 C69.5066639,2.82 69.0533351,2.9766651 68.7,3.29 L68.7,5.87 C69.0533351,6.2500019 69.5133305,6.44 70.08,6.44 C70.6266694,6.44 71.0183322,6.2900015 71.255,5.99 C71.4916679,5.6899985 71.61,5.2233365 71.61,4.59 C71.61,3.9566635 71.4866679,3.5033347 71.24,3.23 C70.9933321,2.9566653 70.6000027,2.82 70.06,2.82 Z M76.78,2.26 L78.43,6.08 L80.13,2.26 L80.97,2.26 L78.98,6.79 C78.7866657,7.2366689 78.6066675,7.5966653 78.44,7.87 C78.2733325,8.1433347 78.0750012,8.3599992 77.845,8.52 C77.6149989,8.6800008 77.3400016,8.76 77.02,8.76 C76.7066651,8.76 76.4333345,8.7166671 76.2,8.63 L76.2,7.97 C76.3866676,8.036667 76.5899989,8.07 76.81,8.07 C77.0300011,8.07 77.2049994,8.03166705 77.335,7.955 C77.4650007,7.87833295 77.5766662,7.76833405 77.67,7.625 C77.7633338,7.48166595 77.8799993,7.2566682 78.02,6.95 L75.93,2.26 L76.78,2.26 Z" id="Designed-by" fill="#FFFFFF"></path>
                    <g id="logo_go" transform="translate(0.000000, 13.000000)">
                        <path d="M32.6102314,7 C33.0535954,7 33.4600063,7.04303755 33.8294762,7.1291139 C34.1989462,7.2151903 34.4839617,7.29873375 34.6845311,7.37974685 L34.225335,9.18734175 C34.0142093,9.0962021 33.7846135,9.02784835 33.5365408,8.9822785 C33.2884681,8.93670865 33.0588724,8.91392405 32.8477467,8.91392405 C32.562727,8.91392405 32.322575,8.95189835 32.1272838,9.0278481 C31.9319925,9.10379785 31.7789287,9.2075943 31.6680877,9.3392405 C31.5572467,9.47088675 31.4780758,9.6278472 31.4305725,9.8101266 C31.3830692,9.99240595 31.3593179,10.1898723 31.3593179,10.4025317 L31.3593179,10.7974684 L34.272838,10.7974684 L34.272838,12.6810126 L31.3593179,12.6810126 L31.3593179,18.7873417 L29,18.7873417 L29,10.3721519 C29,9.33923535 29.3034886,8.5189904 29.910475,7.9113924 C30.5174614,7.30379445 31.4173712,7 32.6102314,7 Z M40.7015835,12.8025317 C40.4904577,12.7518985 40.2423888,12.6987344 39.9573691,12.643038 C39.6723494,12.5873415 39.3662217,12.5594937 39.0389768,12.5594937 C38.8911889,12.5594937 38.7143738,12.5721517 38.5085262,12.5974683 C38.3026786,12.6227849 38.1469758,12.6506327 38.0414129,12.6810126 L38.0414129,18.7873417 L35.682095,18.7873417 L35.682095,11.2227848 C36.1043464,11.081012 36.6031234,10.9468361 37.1784409,10.8202532 C37.7537585,10.6936703 38.3950432,10.6303798 39.1023142,10.6303798 C39.2289897,10.6303798 39.3820535,10.6379746 39.5615103,10.6531646 C39.7409672,10.6683545 39.9204214,10.6886075 40.0998782,10.7139241 C40.279335,10.7392407 40.4587892,10.7696201 40.638246,10.8050633 C40.8177029,10.8405065 40.9707667,10.8835441 41.0974421,10.9341772 L40.7015835,12.8025317 Z M44.7235079,18.7873418 L42.36419,18.7873418 L42.36419,10.7974684 L44.7235079,10.7974684 L44.7235079,18.7873418 Z M44.9451888,8.4886076 C44.9451888,8.90379955 44.8053201,9.23037855 44.5255786,9.46835445 C44.245837,9.7063303 43.915958,9.82531645 43.5359318,9.82531645 C43.1559055,9.82531645 42.8260266,9.7063303 42.546285,9.46835445 C42.2665435,9.23037855 42.1266748,8.90379955 42.1266748,8.4886076 C42.1266748,8.07341565 42.2665435,7.74683665 42.546285,7.50886075 C42.8260266,7.2708849 43.1559055,7.15189875 43.5359318,7.15189875 C43.915958,7.15189875 44.245837,7.2708849 44.5255786,7.50886075 C44.8053201,7.74683665 44.9451888,8.07341565 44.9451888,8.4886076 Z M46.544458,14.8531646 C46.544458,14.1443003 46.6579363,13.5240533 46.8848965,12.9924051 C47.1118566,12.4607569 47.4100672,12.0177233 47.7795371,11.6632912 C48.1490071,11.308859 48.5738912,11.0405073 49.0542022,10.8582279 C49.5345132,10.6759485 50.0280121,10.5848102 50.5347138,10.5848102 C51.7170177,10.5848102 52.6512349,10.9316421 53.3373936,11.6253165 C54.0235518,12.3189908 54.366626,13.3392338 54.366626,14.686076 C54.366626,14.8177222 54.361348,14.9620246 54.350792,15.1189874 C54.3402354,15.2759502 54.3296794,15.4151893 54.3191229,15.5367089 L48.9671133,15.5367089 C49.0198947,16.002534 49.2468514,16.3721506 49.6479903,16.6455696 C50.0491291,16.9189887 50.5874915,17.0556962 51.2630938,17.0556962 C51.6959015,17.0556962 52.1207856,17.0177219 52.5377589,16.9417722 C52.9547318,16.8658224 53.295167,16.7721525 53.5590743,16.6607595 L53.875761,18.4987342 C53.7490859,18.559494 53.5801878,18.6202529 53.3690621,18.6810127 C53.1579364,18.7417725 52.9230628,18.7949365 52.6644335,18.8405064 C52.4058048,18.8860762 52.1287063,18.9240505 51.8331303,18.9544304 C51.5375544,18.9848103 51.2419828,19 50.9464068,19 C50.1969106,19 49.5450697,18.893672 48.9908648,18.6810127 C48.4366598,18.4683534 47.9774683,18.1772171 47.6132765,17.807595 C47.2490847,17.4379729 46.9799034,17.0000026 46.8057247,16.4936709 C46.631546,15.9873393 46.544458,15.4405093 46.544458,14.8531646 Z M52.0864799,13.9873418 C52.0759236,13.7949358 52.0416162,13.6075959 51.9835566,13.4253165 C51.9254971,13.2430371 51.83577,13.0810133 51.7143727,12.9392405 C51.5929754,12.7974677 51.4399116,12.6810131 51.2551766,12.5898734 C51.0704416,12.4987337 50.8408459,12.4531646 50.5663824,12.4531646 C50.3024753,12.4531646 50.0755186,12.4962021 49.8855055,12.5822785 C49.6954924,12.6683549 49.5371505,12.7822778 49.410475,12.9240507 C49.2837996,13.0658235 49.1861554,13.2303788 49.1175396,13.4177215 C49.0489238,13.6050643 48.9987821,13.7949358 48.9671133,13.9873418 L52.0864799,13.9873418 Z M56.187576,11.0708861 C56.5887149,10.9594931 57.1059652,10.8556967 57.7393423,10.7594936 C58.3727195,10.6632907 59.0377553,10.6151899 59.73447,10.6151899 C60.4417412,10.6151899 61.0302455,10.7037966 61.5,10.8810127 C61.9697545,11.0582288 62.3418582,11.3088591 62.6163214,11.6329114 C62.8907847,11.9569637 63.0860733,12.3417699 63.2021924,12.7873417 C63.3183116,13.2329136 63.3763701,13.7291112 63.3763701,14.2759493 L63.3763701,18.7873417 L61.0170526,18.7873417 L61.0170526,14.5493671 C61.0170526,13.8202495 60.916769,13.303799 60.7161998,13 C60.5156301,12.696201 60.140888,12.5443038 59.5919609,12.5443038 C59.4230607,12.5443038 59.2436061,12.5518987 59.0535929,12.5670886 C58.8635802,12.5822785 58.6946822,12.5999999 58.546894,12.6202531 L58.546894,18.7873417 L56.187576,18.7873417 L56.187576,11.0708861 Z M67.5249696,14.7316456 C67.5249696,15.4303833 67.6885897,15.992403 68.0158345,16.4177215 C68.3430794,16.8430401 68.8286611,17.0556962 69.4725942,17.0556962 C69.68372,17.0556962 69.8790086,17.0481014 70.0584652,17.0329114 C70.2379219,17.0177215 70.385708,17.0000001 70.5018271,16.9797469 L70.5018271,12.8632912 C70.354039,12.7721515 70.1613899,12.6962029 69.9238731,12.6354431 C69.6863569,12.5746833 69.4462053,12.5443038 69.2034105,12.5443038 C68.0844444,12.5443038 67.5249696,13.2734105 67.5249696,14.7316456 Z M72.8611451,18.5291139 C72.6500194,18.5898737 72.4072283,18.648101 72.132765,18.7037974 C71.8583017,18.7594939 71.5706471,18.8075947 71.2697928,18.8481012 C70.968939,18.8886078 70.6628113,18.9215188 70.3514005,18.9468354 C70.0399902,18.972152 69.7417795,18.9848101 69.4567602,18.9848101 C68.7706015,18.9848101 68.1583462,18.8886085 67.6199757,18.6962025 C67.0816051,18.5037965 66.6276914,18.2278499 66.2582215,17.8683544 C65.8887516,17.5088589 65.6063755,17.0734203 65.4110838,16.5620253 C65.2157926,16.0506303 65.1181486,15.4759525 65.1181486,14.8379747 C65.1181486,14.1898702 65.2025976,13.6050659 65.3714983,13.0835443 C65.540399,12.5620227 65.7831896,12.1189891 66.0998784,11.7544304 C66.4165667,11.3898716 66.8045044,11.1113933 67.2637029,10.9189873 C67.7229014,10.7265813 68.2480686,10.6303797 68.8392207,10.6303797 C69.166465,10.6303797 69.4593977,10.6607592 69.718027,10.721519 C69.9766557,10.7822788 70.2379198,10.8683538 70.5018271,10.9797468 L70.5018271,7.36455695 L72.8611451,7 L72.8611451,18.5291139 Z M77.4689405,17.1620253 C77.901748,17.1620253 78.2078756,17.1215194 78.3873323,17.0405064 C78.5667895,16.9594933 78.6565165,16.8025328 78.6565165,16.5696203 C78.6565165,16.3873409 78.540399,16.2278488 78.3081607,16.0911393 C78.0759225,15.9544297 77.7222923,15.8000009 77.2472593,15.6278481 C76.8777894,15.4962019 76.5426323,15.3594944 76.2417785,15.2177215 C75.9409242,15.0759487 75.684938,14.9063301 75.4738123,14.7088608 C75.2626866,14.5113914 75.0990665,14.2759508 74.9829474,14.0025317 C74.8668283,13.7291126 74.8087698,13.4000019 74.8087698,13.0151899 C74.8087698,12.2658191 75.0990634,11.6734199 75.679659,11.2379747 C76.2602546,10.8025295 77.057242,10.5848102 78.0706455,10.5848102 C78.577347,10.5848102 79.0629293,10.6278477 79.5274058,10.7139241 C79.9918822,10.8000005 80.3613464,10.8936704 80.6358102,10.9949367 L80.2241168,12.7569621 C79.9496536,12.6658224 79.6514429,12.5848105 79.3294761,12.5139241 C79.0075098,12.4430376 78.6459621,12.407595 78.2448232,12.407595 C77.5058834,12.407595 77.1364192,12.6050613 77.1364192,13 C77.1364192,13.0911397 77.1522532,13.1721516 77.1839223,13.243038 C77.2155908,13.3139244 77.2789278,13.3822782 77.3739344,13.4481013 C77.468941,13.5139244 77.5982536,13.5848098 77.7618758,13.6607595 C77.9254979,13.7367093 78.1339815,13.8202527 78.3873323,13.9113924 C78.9045903,14.0936718 79.3321135,14.2734169 79.6699149,14.4506329 C80.0077157,14.627849 80.2742578,14.8202522 80.4695496,15.0278481 C80.6648408,15.2354441 80.8020703,15.4658215 80.8812424,15.7189874 C80.9604145,15.9721532 81,16.2658211 81,16.6 C81,17.3898774 80.6912334,17.9873398 80.0736907,18.3924051 C79.4561481,18.7974704 78.5826287,19 77.453106,19 C76.7141662,19 76.0992714,18.9392411 75.6084044,18.8177215 C75.1175369,18.6962019 74.7771023,18.5949371 74.5870891,18.5139241 L74.9829474,16.6759494 C75.3840863,16.8278489 75.7957755,16.946835 76.218027,17.0329114 C76.6402784,17.1189878 77.0572451,17.1620253 77.4689405,17.1620253 Z" id="friends" fill="#FFFFFF" fill-rule="nonzero"></path>
                        <circle id="Oval" fill="#4A998C" cx="13" cy="13" r="13"></circle>
                        <path d="M7.3258326,12.2857143 C7.3258326,13.6593475 7.84097895,14.3461539 8.87128715,14.3461539 C9.10591175,14.3461539 9.3252315,14.3131871 9.52925295,14.2472527 C9.73327435,14.1813184 9.90668995,14.104396 10.0495049,14.0164835 L10.0495049,10.0934066 C9.93729315,10.0714284 9.80468125,10.0521979 9.65166515,10.0357143 C9.4986491,10.0192307 9.32013305,10.010989 9.1161116,10.010989 C8.5142484,10.010989 8.065408,10.2252726 7.76957695,10.6538461 C7.4737459,11.0824197 7.3258326,11.6263703 7.3258326,12.2857143 Z M12.3294329,15.8131868 C12.3294329,17.2307763 11.9953529,18.2829636 11.3271827,18.9697802 C10.6590125,19.6565968 9.6261696,20 8.22862285,20 C7.73897145,20 7.2493274,19.9532971 6.75967595,19.8598901 C6.27002455,19.7664831 5.8160837,19.6428579 5.39783979,19.489011 L5.79567955,17.4285714 C6.15271705,17.5824184 6.5276008,17.7032963 6.92034205,17.7912088 C7.31308325,17.8791213 7.75937345,17.9230769 8.2592259,17.9230769 C8.91209445,17.9230769 9.373686,17.7692323 9.6440144,17.4615384 C9.9143428,17.1538446 10.0495049,16.7582442 10.0495049,16.2747253 L10.0495049,15.9615384 C9.80467925,16.0824182 9.5522065,16.1730766 9.2920792,16.2335165 C9.0319519,16.2939563 8.7488764,16.3241758 8.4428443,16.3241758 C7.33092755,16.3241758 6.47915085,15.9697837 5.88748875,15.260989 C5.29582663,14.5521942 5,13.5604459 5,12.2857143 C5,11.6483484 5.09180827,11.0686839 5.27542755,10.5467033 C5.45904682,10.0247227 5.7268209,9.57692496 6.0787579,9.20329673 C6.43069485,8.82966844 6.8616836,8.54120982 7.37173715,8.33791209 C7.88179075,8.13461436 8.4581426,8.03296705 9.1008101,8.03296705 C9.376239,8.03296705 9.6593145,8.04670318 9.950045,8.07417582 C10.2407756,8.10164851 10.5289514,8.13736242 10.8145815,8.18131869 C11.1002114,8.22527496 11.373086,8.27747224 11.6332133,8.33791209 C11.8933407,8.39835195 12.1254115,8.46153811 12.3294329,8.52747255 L12.3294329,15.8131868 Z M22,12.5494505 C22,13.2307726 21.9081917,13.8543928 21.7245724,14.4203297 C21.5409532,14.9862666 21.2757293,15.4697782 20.9288929,15.8708791 C20.5820564,16.27198 20.166369,16.5824165 19.6818182,16.8021978 C19.1972673,17.0219791 18.6540684,17.1318681 18.0522052,17.1318681 C17.4605431,17.1318681 16.9224446,17.0219791 16.4378938,16.8021978 C15.9533429,16.5824165 15.5376555,16.27198 15.1908191,15.8708791 C14.8439826,15.4697782 14.5736583,14.9862666 14.379838,14.4203297 C14.1860176,13.8543928 14.0891089,13.2307726 14.0891089,12.5494505 C14.0891089,11.8681284 14.1885678,11.2472555 14.3874887,10.6868132 C14.5864096,10.1263708 14.8618344,9.6483536 15.2137714,9.25274725 C15.5657083,8.85714085 15.9839459,8.54945164 16.4684968,8.32967033 C16.9530477,8.10988902 17.4809452,8 18.0522052,8 C18.6336662,8 19.1666642,8.10988902 19.6512151,8.32967033 C20.135766,8.54945164 20.5514534,8.85714085 20.8982898,9.25274725 C21.2451262,9.6483536 21.5154506,10.1263708 21.7092709,10.6868132 C21.9030913,11.2472555 22,11.8681284 22,12.5494505 Z M19.6741674,12.5494505 C19.6741674,11.791205 19.5339048,11.1950571 19.2533753,10.760989 C18.9728459,10.3269209 18.5724598,10.1098901 18.0522052,10.1098901 C17.5319506,10.1098901 17.1290143,10.3269209 16.8433843,10.760989 C16.5577543,11.1950571 16.4149415,11.791205 16.4149415,12.5494505 C16.4149415,13.3076961 16.5577543,13.9093384 16.8433843,14.3543956 C17.1290143,14.7994528 17.5319506,15.021978 18.0522052,15.021978 C18.5724598,15.021978 18.9728459,14.7994528 19.2533753,14.3543956 C19.5339048,13.9093384 19.6741674,13.3076961 19.6741674,12.5494505 Z" id="go" fill="#FFFFFF" fill-rule="nonzero"></path>
                    </g>
                </g>
            </g>
        </g>
    </g>
</svg>