<?xml version="1.0" encoding="UTF-8"?>
<svg width="30px" height="30px" viewBox="0 0 30 30" version="1.1" xmlns="http://www.w3.org/2000/svg" xmlns:xlink="http://www.w3.org/1999/xlink">
    <!-- Generator: sketchtool 52.2 (67145) - http://www.bohemiancoding.com/sketch -->
    <title>104B95EB-18EB-4C78-B897-BEB3FD830142</title>
    <desc>Created with sketchtool.</desc>
    <g id="New-garden" stroke="none" stroke-width="1" fill="none" fill-rule="evenodd" opacity="0.5">
        <g id="home" transform="translate(-1482.000000, -3944.000000)" fill="#FFFFFF">
            <g id="footer" transform="translate(0.000000, 3891.000000)">
                <g id="inst" transform="translate(1482.000000, 53.000000)">
                    <path d="M15.0175313,17.8951875 C16.6103438,17.8951875 17.9022188,16.6070625 17.9022188,15.0170625 C17.9022188,13.428 16.6103438,12.139875 15.0175313,12.139875 C13.4247188,12.139875 12.1328438,13.428 12.1328438,15.0170625 C12.1328438,16.6070625 13.4247188,17.8951875 15.0175313,17.8951875" id="Fill-202"></path>
                    <path d="M18.3391875,12.06975 L20.367,12.06975 C20.5985625,12.06975 20.787,11.88225 20.787,11.651625 L20.787,9.6275625 C20.787,9.3969375 20.5985625,9.2094375 20.367,9.2094375 L18.3391875,9.2094375 C18.107625,9.2094375 17.9191875,9.3969375 17.9191875,9.6275625 L17.9191875,11.651625 C17.9191875,11.88225 18.107625,12.06975 18.3391875,12.06975" id="Fill-203"></path>
                    <path d="M22.5,20.721 C22.5,21.7035 21.7021875,22.500375 20.716875,22.500375 L9.283125,22.500375 C8.29875,22.500375 7.5,21.7035 7.5,20.721 L7.5,9.2788125 C7.5,8.2963125 8.29875,7.500375 9.283125,7.500375 L20.716875,7.500375 C21.7021875,7.500375 22.5,8.2963125 22.5,9.2788125 L22.5,20.721 Z M15,0.000375 C6.7153125,0.000375 0,6.7156875 0,15.000375 C0,23.284125 6.7153125,30.000375 15,30.000375 C23.2846875,30.000375 30,23.284125 30,15.000375 C30,6.7156875 23.2846875,0.000375 15,0.000375 L15,0.000375 Z" id="Fill-204"></path>
                    <path d="M19.5804375,15.0174375 C19.5804375,17.527125 17.533875,19.5699375 15.017625,19.5699375 C12.501375,19.5699375 10.4548125,17.527125 10.4548125,15.0174375 C10.4548125,14.6011875 10.5110625,14.197125 10.617,13.8136875 L9.2135625,13.8136875 L9.2135625,20.3368125 C9.2135625,20.568375 9.4010625,20.755875 9.632625,20.755875 L20.4016875,20.755875 C20.6341875,20.755875 20.8216875,20.568375 20.8216875,20.3368125 L20.8216875,13.8136875 L19.41825,13.8136875 C19.5241875,14.197125 19.5804375,14.6011875 19.5804375,15.0174375" id="Fill-205"></path>
                </g>
            </g>
        </g>
    </g>
</svg>