<?xml version="1.0" encoding="UTF-8"?>
<svg width="30px" height="30px" viewBox="0 0 30 30" version="1.1" xmlns="http://www.w3.org/2000/svg" xmlns:xlink="http://www.w3.org/1999/xlink">
    <!-- Generator: sketchtool 52.2 (67145) - http://www.bohemiancoding.com/sketch -->
    <title>E2BC0C74-54DB-4214-9213-B973256BED2E</title>
    <desc>Created with sketchtool.</desc>
    <g id="New-garden" stroke="none" stroke-width="1" fill="none" fill-rule="evenodd" opacity="0.5">
        <g id="home" transform="translate(-1409.000000, -3944.000000)" fill="#FFFFFF">
            <g id="footer" transform="translate(0.000000, 3891.000000)">
                <g id="linkd" transform="translate(1409.000000, 53.000000)">
                    <path d="M22.5,22.4863125 L19.3921875,22.4863125 L19.3921875,17.6225625 C19.3921875,16.462875 19.3715625,14.9713125 17.776875,14.9713125 C16.1596875,14.9713125 15.913125,16.2350625 15.913125,17.5400625 L15.913125,22.4863125 L12.808125,22.4863125 L12.808125,12.4850625 L15.7875,12.4850625 L15.7875,13.852875 L15.830625,13.852875 C16.245,13.0663125 17.259375,12.236625 18.7715625,12.236625 C21.91875,12.236625 22.5,14.3075625 22.5,17.001 L22.5,22.4863125 Z M9.30375,11.119125 C8.3053125,11.119125 7.5,10.311 7.5,9.3163125 C7.5,8.321625 8.3053125,7.5135 9.30375,7.5135 C10.2975,7.5135 11.1046875,8.321625 11.1046875,9.3163125 C11.1046875,10.311 10.2975,11.119125 9.30375,11.119125 L9.30375,11.119125 Z M10.858125,22.4863125 L7.7465625,22.4863125 L7.7465625,12.4850625 L10.858125,12.4850625 L10.858125,22.4863125 Z M15,0.000375 C6.7153125,0.000375 0,6.7156875 0,15.000375 C0,23.284125 6.7153125,30.000375 15,30.000375 C23.2846875,30.000375 30,23.284125 30,15.000375 C30,6.7156875 23.2846875,0.000375 15,0.000375 L15,0.000375 Z"></path>
                </g>
            </g>
        </g>
    </g>
</svg>