<?xml version="1.0" encoding="UTF-8"?>
<svg width="31px" height="27px" viewBox="0 0 31 27" version="1.1" xmlns="http://www.w3.org/2000/svg" xmlns:xlink="http://www.w3.org/1999/xlink">
    <!-- Generator: sketchtool 52.2 (67145) - http://www.bohemiancoding.com/sketch -->
    <title>3C9E06F7-A9C8-4D61-8892-F7BEF33864EA</title>
    <desc>Created with sketchtool.</desc>
    <g id="New-garden" stroke="none" stroke-width="1" fill="none" fill-rule="evenodd">
        <g id="home" transform="translate(-427.000000, -1211.000000)" fill="#FFFFFF" fill-rule="nonzero">
            <g id="Group-3" transform="translate(-50.000000, 727.000000)">
                <g id="Group-16" transform="translate(457.000000, 128.000000)">
                    <g id="Group-7" transform="translate(0.000000, 343.000000)">
                        <g id="shovel" transform="translate(35.655452, 25.083025) rotate(-101.000000) translate(-35.655452, -25.083025) translate(23.155452, 11.583025)">
                            <path d="M20.4401092,1 C19.1656494,2.27445983 20.5913391,0.847763051 18.8086395,2.63566588 C18.0650787,3.37939453 17.7619476,4.39889524 17.8989105,5.36787416 L11.3154602,11.9511566 L7.75190736,10.1694641 L7.44071959,10.3767547 C5.72113037,11.5233154 4.41813659,13.1482391 3.67289733,15.0759583 C2.92765807,17.0036774 2.79858398,19.0826263 3.29994203,21.0877228 L3.62237549,22.3776245 L4.91244505,22.700058 C5.71340945,22.9002991 6.52595521,23 7.3361511,23 C8.55404661,23 9.76640319,22.7747497 10.9240417,22.3271027 C12.8517609,21.5818634 14.4768524,20.2788696 15.6232452,18.5591126 L15.8307037,18.2480926 L14.0488434,14.6845398 L20.6296081,8.10360716 C21.2838745,8.19743346 21.9440155,8.0881653 22.531311,7.79342649 C23.1533509,7.48123171 23.3428497,7.21267702 24.997818,5.55770872 L20.4401092,1 Z M11.3644714,15.5466003 C10.8258514,16.0852203 10.1524506,16.4400482 9.42047119,16.5796966 C9.55995179,15.8475494 9.91477965,15.1741486 10.4533997,14.6355286 L12.3537598,12.7350006 L13.2649994,13.6462402 L11.3644714,15.5466003 Z M14.3397217,18.1473846 C12.2688294,20.9838257 8.65425111,22.3074646 5.22497559,21.4501038 L4.68501283,21.315155 L4.5500641,20.7751923 C3.69270326,17.3459167 5.01634215,13.7311706 7.85261537,11.6604462 L10.3550415,12.9115753 L9.54232786,13.7244568 C7.93032839,15.3362884 8.06510924,17.1523895 8.06510924,17.9350586 C8.82293701,17.9350586 10.6593475,18.0742035 12.2757111,16.45784 L13.0884247,15.6449585 L14.3397217,18.1473846 Z M14.1760712,12.7351685 L13.2649994,11.8239288 L18.3989258,6.68983461 C18.5162506,6.86724854 18.65271,7.03526305 18.8088074,7.19136048 C18.9640656,7.34661865 19.1320801,7.48341371 19.3098297,7.60124205 L14.1760712,12.7351685 Z M21.9534149,6.64183043 C21.20784,7.01579284 20.3101959,6.87060547 19.7198792,6.28012083 C18.9662476,5.52665709 18.9662476,4.30036927 19.7197113,3.54673766 C19.7250824,3.54153445 20.1128082,3.15380859 20.4412842,2.82348633 L23.1756744,5.55770872 C22.4353027,6.29808043 22.312439,6.46156312 21.9534149,6.64183043 Z"></path>
                        </g>
                    </g>
                </g>
            </g>
        </g>
    </g>
</svg>