<?xml version="1.0" encoding="UTF-8"?>
<svg width="30px" height="30px" viewBox="0 0 30 30" version="1.1" xmlns="http://www.w3.org/2000/svg" xmlns:xlink="http://www.w3.org/1999/xlink">
    <!-- Generator: sketchtool 52.2 (67145) - http://www.bohemiancoding.com/sketch -->
    <title>8DBE0547-66B9-4321-8973-6C7FB79360CB</title>
    <desc>Created with sketchtool.</desc>
    <g id="New-garden" stroke="none" stroke-width="1" fill="none" fill-rule="evenodd" opacity="0.5">
        <g id="home" transform="translate(-1335.000000, -3944.000000)" fill="#FFFFFF">
            <g id="footer" transform="translate(0.000000, 3891.000000)">
                <g id="twi" transform="translate(1335.000000, 53.000000)">
                    <path d="M20.9644688,11.9410312 C20.9700938,12.0732187 20.9738438,12.2054062 20.9738438,12.3394687 C20.9738438,16.4054062 17.8782187,21.0947812 12.2175938,21.0947812 C10.4794688,21.0947812 8.86228125,20.5857187 7.50009375,19.7129062 C7.74103125,19.7410312 7.98571875,19.7550937 8.23415625,19.7550937 C9.67603125,19.7550937 11.0025937,19.2638437 12.0563438,18.4379062 C10.7091563,18.4135312 9.57290625,17.5238437 9.18103125,16.3013437 C9.36946875,16.3369687 9.56165625,16.3557187 9.76040625,16.3557187 C10.0407187,16.3557187 10.3125938,16.3182187 10.5713437,16.2479062 C9.16321875,15.9657187 8.10290625,14.7216562 8.10290625,13.2310312 L8.10290625,13.1916562 C8.51728125,13.4222812 8.99259375,13.5610312 9.49696875,13.5769687 C8.67103125,13.0247812 8.12728125,12.0825937 8.12728125,11.0157187 C8.12728125,10.4513437 8.27915625,9.92259375 8.54446875,9.46790625 C10.0622812,11.3297812 12.3300937,12.5550937 14.8875937,12.6835312 C14.8350938,12.4585312 14.8079062,12.2232187 14.8079062,11.9822812 C14.8079062,10.2825937 16.1860313,8.90446875 17.8847813,8.90446875 C18.7707187,8.90446875 19.5704063,9.27853125 20.1310313,9.87665625 C20.8322812,9.73884375 21.4913437,9.48290625 22.0857187,9.13040625 C21.8560312,9.84853125 21.3675938,10.4513437 20.7329062,10.8329062 C21.3554063,10.7579062 21.9479063,10.5929062 22.5000938,10.3482187 C22.0875937,10.9650937 21.5654063,11.5069687 20.9644688,11.9410312 M15.0000938,9.375e-05 C6.71540625,9.375e-05 9.375e-05,6.71540625 9.375e-05,15.0000937 C9.375e-05,23.2838437 6.71540625,30.0000937 15.0000938,30.0000937 C23.2847812,30.0000937 30.0000938,23.2838437 30.0000938,15.0000937 C30.0000938,6.71540625 23.2847812,9.375e-05 15.0000938,9.375e-05"></path>
                </g>
            </g>
        </g>
    </g>
</svg>